<?xml version="1.0" encoding="utf-8" ?>
<svg baseProfile="full" height="200mm" version="1.1" viewBox="0,0,200,200" width="200mm" xmlns="http://www.w3.org/2000/svg" xmlns:ev="http://www.w3.org/2001/xml-events" xmlns:xlink="http://www.w3.org/1999/xlink"><defs /><rect fill="#1a1a1a" height="200" width="200" x="0" y="0" /><text alignment-baseline="middle" fill="#e1ed5e" style="dominant-baseline: central; font-size:9.0px; font-family:Arial;" text-anchor="middle" x="100.0" y="100.0">2025</text><line stroke="#e1ed5e" stroke-width="0.3" x1="100.0" x2="100.0" y1="15.0" y2="10.0" /><path d="M 100.0 14.0 a86.0,86.0 0 0,1 42.46469731375804,11.215312516191453" fill="none" id="id13" stroke="none" /><text fill="#e1ed5e" style="font-size:6.75px; font-family:Arial;" text-anchor="middle"><textPath startOffset="22.20632615414155" xlink:href="#id13">January</textPath></text><path d="M 101.08401301168833 79.027996857942 l 1.1390583143526876 -22.036944473928624 a43.06636298963899,43.06636298963899 0 0,0 0.739998961195757,0.044638758188834 l -1.5182193243880566 22.01407244635949" fill="#f4ff19" stroke="none" /><path d="M 102.52436894288641 79.15227682838746 l 0.9553926913407061 -7.890194658502889 a28.947826554708826,28.947826554708826 0 0,0 0.494160450551075,0.06415620898142287 l -1.0910678703996273 7.872580126357329" fill="#ff4f07" stroke="none" /><path d="M 103.59715602781102 79.31037775812273 l 1.5963421589042823 -9.18161902935601 a30.31935814788377,30.31935814788377 0 0,0 0.5134148420198087,0.09382328071403764 l -1.754152122026992 9.152780267291234" fill="#ff6209" stroke="none" /><path d="M 104.66035177308747 79.52364482259891 l 5.171563798984746 -22.72248583939968 a44.303571289583246,44.303571289583246 0 0,0 0.7421403315544091,0.17564063888648823 l -5.561927817501679 22.630099288372325" fill="#e5ff1a" stroke="none" /><path d="M 106.40334571778207 80.00007090966166 l 2.669106143411093 -8.336569030556456 a29.753428517217003,29.753428517217003 0 0,0 0.4864220527210912,0.16036570306584896 l -2.812211018374602 8.28938960323137" fill="#ff5a08" stroke="none" /><path d="M 106.74666289553966 80.11325718540242 l 1.4928756088514823 -4.400461939048829 a25.646799205961138,25.646799205961138 0 0,0 0.41684352891287046,0.1454285223004552 l -1.5684011418276265 4.3741125635761655" fill="#ff1f03" stroke="none" /><path d="M 107.08798089147638 80.2323363322302 l 4.427258919336212 -12.347178502246646 a34.11691421429536,34.11691421429536 0 0,0 0.5510981091233238,0.2029740844983816 l -4.639139354232111 12.26914114994194" fill="#ff970d" stroke="none" /><path d="M 108.76106565485865 80.91482961587045 l 2.4024910311267855 -5.23360427620692 a26.758695761591856,26.758695761591856 0 0,0 0.41695372811418824,0.19576536608871642 l -2.492222970540572 5.1914739274782" fill="#ff2f04" stroke="none" /><path d="M 109.08828744355905 81.06846463323043 l 3.7974660512627527 -7.9103861206038255 a29.774677030383213,29.774677030383213 0 0,0 0.46013039104018394,0.22578398455907006 l -3.933067709313369 7.843846975909924" fill="#ff5a08" stroke="none" /><line stroke="#e1ed5e" stroke-width="0.3" x1="143.23703022742887" x2="145.7803849466894" y1="26.81831364943548" y2="22.513508569990506" /><path d="M 143.74570117128098 25.957352633546492 a86.0,86.0 0 0,1 28.547481713284135,27.462654790039103" fill="none" id="id14" stroke="none" /><text fill="#e1ed5e" style="font-size:6.75px; font-family:Arial;" text-anchor="middle"><textPath startOffset="19.985693538727396" xlink:href="#id14">February</textPath></text><path d="M 111.90073688211348 82.69761687909136 l 6.183945047190293 -8.990786660105549 a31.912168488169584,31.912168488169584 0 0,0 0.4499142551288997,0.31519368784368923 l -6.337790441902844 8.883008129497926" fill="#ff780b" stroke="none" /><path d="M 112.19680574252982 82.90503203632743 l 1.4961388266352407 -2.096978983714726 a23.575995389496402,23.575995389496402 0 0,0 0.328329060632367,0.23854502572946387 l -1.5320132036213965 2.0709147231685874" fill="#ff0000" stroke="none" /><path d="M 112.48926042617603 83.11751280151076 l 6.4337529644049125 -8.696892238083056 a31.817999436486318,31.817999436486318 0 0,0 0.43750331985709656,0.32951843012133675 l -6.582502438020392 8.584857218455872" fill="#ff770b" stroke="none" /><path d="M 113.06298171725822 83.55741782278167 l 5.474296631844724 -6.890583955472978 a29.800458559691542,29.800458559691542 0 0,0 0.39889560106423866,0.3225458347309936 l -5.592095631473454 6.795332023477855" fill="#ff5b08" stroke="none" /><path d="M 113.6212207817346 84.01681056812373 l 5.585771991273138 -6.554364934713144 a29.611651899368013,29.611651899368013 0 0,0 0.38510122695384424,0.333955989163868 l -5.697767016873747 6.457243952129605" fill="#ff5808" stroke="none" /><path d="M 114.16331599549186 84.49514656593476 l 9.96046260795138 -10.903909290799538 a35.76841403761359,35.76841403761359 0 0,0 0.45100924030103856,0.41916393609715025 l -10.146679732047266 10.730840768627747" fill="#ffad10" stroke="none" /><path d="M 114.94478906791727 85.2469230424477 l 7.968440068790183 -7.866220729663877 a32.1970293246778,32.1970293246778 0 0,0 0.38595918493430265,0.39776486684496876 l -8.102663517427594 7.7278916672687945" fill="#ff7c0b" stroke="none" /><path d="M 115.19652480421416 85.50635884689758 l 3.5799319914984635 -3.4143496822971917 a25.947089732030044,25.947089732030044 0 0,0 0.30547468959630913,0.3258591002545581 l -3.6381740030652354 3.352221165164579" fill="#ff2303" stroke="none" /><path d="M 115.4437574822437 85.77008943001954 l 5.514341871170177 -5.080926178054067 a28.49825160280553,28.49825160280553 0 0,0 0.329299142035477,0.3636203373648976 l -5.600984653821689 4.985253053419621" fill="#ff4806" stroke="none" /><path d="M 115.68641384162765 86.03803664274999 l 12.211561680695034 -10.86911122210781 a37.348082989756605,37.348082989756605 0 0,0 0.4232927443491351,0.48389678034067013 l -12.396846288622017 10.657298885564192" fill="#ffc212" stroke="none" /><path d="M 116.60985879189232 87.15038557335679 l 8.630621999161416 -6.6767674753178445 a31.91177620792652,31.91177620792652 0 0,0 0.33237491651701107,0.4373664295866034 l -8.74427285590254 6.527216269850207" fill="#ff780b" stroke="none" /><path d="M 117.04232023915458 87.72973835380427 l 5.961860412289057 -4.29246640893494 a28.346362872024105,28.346362872024105 0 0,0 0.28169181932624726,0.39843310151429895 l -6.0348648514191865 4.189206807088848" fill="#ff4606" stroke="none" /><path d="M 117.45458315368197 88.32363383020206 l 5.194041646379846 -3.474590692331595 a27.249067858774268,27.249067858774268 0 0,0 0.25744317840671616,0.3921036228746736 l -5.253081460144487 3.3846690054792474" fill="#ff3605" stroke="none" /><line stroke="#e1ed5e" stroke-width="0.3" x1="172.23445277983987" x2="176.4835382374775" y1="55.19839476539836" y2="52.563006222186495" /><path d="M 173.08426987136738 54.67131705675599 a86.0,86.0 0 0,1 12.851231095245387,41.99856678651699" fill="none" id="id15" stroke="none" /><text fill="#e1ed5e" style="font-size:6.75px; font-family:Arial;" text-anchor="middle"><textPath startOffset="22.20632615414155" xlink:href="#id15">March</textPath></text><path d="M 118.03404312379186 89.2402003453031 l 27.90521880301748 -16.649320486809227 a53.49463200463679,53.49463200463679 0 0,0 0.46499654953411657,0.7948298339999472 l -28.18767502702192 16.16651124045538" fill="#7bff26" stroke="none" /><path d="M 118.56541770881063 90.18545643968196 l 7.415084183763759 -3.919958487679891 a29.387463740454386,29.387463740454386 0 0,0 0.23256758366726865,0.4492465468700427 l -7.481461200591145 3.7917392185495036" fill="#ff5507" stroke="none" /><path d="M 118.89224826269711 90.83032412892265 l 5.146027322420044 -2.4977123905084233 a26.720154227710378,26.720154227710378 0 0,0 0.1972733796329072,0.4155080484911097 l -5.188258895894707 2.408761926376773" fill="#ff2e04" stroke="none" /><path d="M 119.196687751892 91.48605970444005 l 9.985049698117438 -4.428478395685318 a31.9230324715679,31.9230324715679 0 0,0 0.21845887315038456,0.5042331989623204 l -10.059799281110504 4.2559460521363945" fill="#ff780b" stroke="none" /><path d="M 119.34039704204932 91.81776055985345 l 15.05503120625274 -6.369252391283149 a37.346906149027404,37.346906149027404 0 0,0 0.24538395764106205,0.5942167171087598 l -15.16243685078 6.109161103721086" fill="#ffc212" stroke="none" /><path d="M 119.61058180528143 92.48833698450437 l 8.160509680992977 -3.125812347994707 a29.73868531808168,29.73868531808168 0 0,0 0.17899206515236235,0.47960974535236794 l -8.213106334646964 2.9848794656130058" fill="#ff5a08" stroke="none" /><path d="M 119.97218684219823 93.5106431181261 l 6.893556836865799 -2.2398523933987105 a28.248314604603827,28.248314604603827 0 0,0 0.14627853838291235,0.4637429408891106 l -6.931090859016917 2.1208592860831805" fill="#ff4506" stroke="none" /><path d="M 120.08093135843002 93.85539295169968 l 7.725171767627173 -2.363841798242356 a29.078739189159506,29.078739189159506 0 0,0 0.14233918609868748,0.47989697492498684 l -7.764716850837562 2.2305154365708395" fill="#ff5007" stroke="none" /><path d="M 120.18372546131832 94.20196356495316 l 4.54461029249023 -1.305498140541305 a25.728404393192797,25.728404393192797 0 0,0 0.11861190083236028,0.42671011577215384 l -4.566408963888954 1.2270767213501994" fill="#ff2003" stroke="none" /><path d="M 120.37134235888165 94.90015583598534 l 13.748122086383924 -3.4417604374430155 a35.172387794964735,35.172387794964735 0 0,0 0.14197451531046154,0.5885760242358602 l -13.805329401955206 3.2045991815477493" fill="#ffa50f" stroke="none" /><path d="M 120.67395015179393 96.31383870115 l 62.02185045538181 -11.058483896549978 a84.0,84.0 0 0,0 0.2415525539191079,1.4256568467366484 l -62.20301487082114 9.98924126149749" fill="#4dd2ff" stroke="none" /><path d="M 120.96714384426684 98.82574320788733 l 7.151199083671555 -0.4005001424191279 a28.162405231371835,28.162405231371835 0 0,0 0.02294081604642262,0.48424436856336656 l -7.157033507951474 0.2773446672327616" fill="#ff4306" stroke="none" /><line stroke="#e1ed5e" stroke-width="0.3" x1="184.98032266829074" x2="189.97916517819016" y1="98.17113171792111" y2="98.06355123074" /><path d="M 185.9800911702706 98.14961562048488 a86.0,86.0 0 0,1 -9.607161424134198,41.387399972396054" fill="none" id="id16" stroke="none" /><text fill="#e1ed5e" style="font-size:6.75px; font-family:Arial;" text-anchor="middle"><textPath startOffset="21.466115282336823" xlink:href="#id16">April</textPath></text><path d="M 120.99513854157772 99.54816195383933 l 5.446149427299983 -0.11720701492190978 a26.447410492043613,26.447410492043613 0 0,0 0.0058776131676772665,0.4552276171935744 l -5.447360047585375 0.02344313966787263" fill="#ff2b04" stroke="none" /><path d="M 120.9764740272857 100.99374915477107 l 10.770375072077186 0.5102407158858904 a31.782454487794947,31.782454487794947 0 0,0 -0.030592351569016987,0.5462469880441596 l -10.759996369620639 -0.6955594202654733" fill="#ff760a" stroke="none" /><path d="M 120.92983693683757 101.71520430193887 l 5.444653457455671 0.44619043430566535 a26.462905561644817,26.462905561644817 0 0,0 -0.04111252274429955,0.45367326263207985 l -5.436166338434297 -0.5398450854863157" fill="#ff2b04" stroke="none" /><path d="M 120.89721153311464 102.0752229133903 l 5.428348292030357 0.5390687049146928 a26.455049060110028,26.455049060110028 0 0,0 -0.04890114848524913,0.45276390175818265 l -5.4182648420440565 -0.632428928557667" fill="#ff2b04" stroke="none" /><path d="M 120.76222939487914 103.15116336523771 l 13.085300180435345 1.986006308257832 a34.23515401756025,34.23515401756025 0 0,0 -0.09344280797417341,0.5818684544533035 l -13.049175618099884 -2.2109539924043404" fill="#ff980e" stroke="none" /><path d="M 120.49622156327973 104.57218783832717 l 6.4247336279017455 1.4331953266260182 a27.582647722136905,27.582647722136905 0 0,0 -0.10736142928306651,0.4625102274417912 l -6.399111632688126 -1.5435742114163744" fill="#ff3b05" stroke="none" /><path d="M 120.41448212921028 104.9243191809786 l 6.37605098841351 1.5380115930649285 a27.55892566410468,27.55892566410468 0 0,0 -0.115207707785327,0.4601975241199116 l -6.348631966333123 -1.647536956582236" fill="#ff3b05" stroke="none" /><path d="M 120.02730092923936 106.31721596034902 l 19.367903966663178 6.109222230644269 a41.308577013796054,41.308577013796054 0 0,0 -0.21973753104443616,0.6762825817950022 l -19.259874184602495 -6.441703712417066" fill="#fff417" stroke="none" /><path d="M 119.67450827220406 107.3425965602758 l 6.157389952314336 2.2979598604766105 a27.572219605675333,27.572219605675333 0 0,0 -0.16977360568180408,0.4432253118560543 l -6.116922067039025 -2.4036087391658087" fill="#ff3b05" stroke="none" /><path d="M 119.41010516605496 108.01547362559984 l 10.67461597006624 4.408121544910875 a32.548980979424144,32.548980979424144 0 0,0 -0.21830914448295669,0.5160183300789432 l -10.597155844390976 -4.591214400655981" fill="#ff810b" stroke="none" /><path d="M 118.97047184881838 109.00673069616215 l 9.850493190631468 4.676780846540879 a31.904333779981634,31.904333779981634 0 0,0 -0.23980929462129824,0.49407817608667415 l -9.768530639395456 -4.845647978592829" fill="#ff780b" stroke="none" /><path d="M 118.64920377521936 109.65438752849418 l 4.85326995349391 2.512458412497346 a26.465041309634856,26.465041309634856 0 0,0 -0.21291439757082856,0.4027538013183089 l -4.8093030476981875 -2.5956272289017894" fill="#ff2b04" stroke="none" /><line stroke="#e1ed5e" stroke-width="0.3" x1="174.80103733775053" x2="179.2010983576182" y1="140.37084112569926" y2="142.7455964860345" /><path d="M 175.68104954172406 140.8457921977663 a86.0,86.0 0 0,1 -30.038265399797805,32.042727171017184" fill="none" id="id17" stroke="none" /><text fill="#e1ed5e" style="font-size:6.75px; font-family:Arial;" text-anchor="middle"><textPath startOffset="22.206326154141568" xlink:href="#id17">May</textPath></text><path d="M 116.93607887273984 112.41649034213515 l 7.514776965276755 5.50937181586021 a30.317996063706453,30.317996063706453 0 0,0 -0.31218690786471753,0.418225379940145 l -7.418828790716945 -5.63791007530967" fill="#ff6209" stroke="none" /><path d="M 116.498646956653 112.99209946851258 l 14.128733637008766 11.125876761798144 a38.98349932310903,38.98349932310903 0 0,0 -0.41968909154174655,0.5236266718461989 l -13.935126633412166 -11.367431267222594" fill="#ffd714" stroke="none" /><path d="M 116.27256486870786 113.27417163493432 l 4.491798255996652 3.664136630007044 a26.79673604849608,26.79673604849608 0 0,0 -0.2946415973045061,0.3549147846658481 l -4.428060658798603 -3.7409126717866625" fill="#ff3004" stroke="none" /><path d="M 115.80600337817218 113.82643327865902 l 7.06974869606657 6.184321634274819 a30.392932486805947,30.392932486805947 0 0,0 -0.3478415407828253,0.3908036585123603 l -6.9622483056354065 -6.305099462528046" fill="#ff6309" stroke="none" /><path d="M 115.32070863581623 114.36230785411682 l 6.371589805397471 5.973009243928839 a29.73349850153444,29.73349850153444 0 0,0 -0.3532530038436295,0.3703843622431475 l -6.267830250174876 -6.081800722754493" fill="#ff5a08" stroke="none" /><path d="M 115.07121518719521 114.62390073753431 l 4.42222594577694 4.290974049984758 a27.161861781405467,27.161861781405467 0 0,0 -0.328476640015889,0.33274510211665875 l -4.347708680705516 -4.366459646082081" fill="#ff3505" stroke="none" /><path d="M 114.55890576462653 115.13401014063108 l 4.603664722285884 4.785518205662166 a27.640400091255316,27.640400091255316 0 0,0 -0.3457210774797058,0.32690085757869963 l -4.52060781041537 -4.864053699986788" fill="#ff3c05" stroke="none" /><path d="M 114.29624159901734 115.38237550388516 l 5.557296441152884 5.979503077934421 a29.16321020150025,29.16321020150025 0 0,0 -0.37065114008442696,0.33858102841341503 l -5.4535457516015935 -6.074276872934419" fill="#ff5207" stroke="none" /><path d="M 113.75828350139079 115.86535959552629 l 5.3734940409097485 6.196442691040117 a29.201849805442492,29.201849805442492 0 0,0 -0.3825922394899555,0.32605340665471666 l -5.266036324842745 -6.28802048791778" fill="#ff5207" stroke="none" /><path d="M 113.20401910651253 116.32954008644616 l 5.106516329272632 6.31527888806378 a29.121530425674223,29.121530425674223 0 0,0 -0.39250623750432273,0.3118306935715238 l -4.997052599050958 -6.4022434956404295" fill="#ff5107" stroke="none" /><path d="M 112.92097659922987 116.55440617244103 l 10.728314349407622 13.74515865126686 a38.43634466074245,38.43634466074245 0 0,0 -0.5250610983280715,0.4025944604441384 l -10.490124522586056 -13.927792453538371" fill="#ffd013" stroke="none" /><path d="M 112.34349029814194 116.9893568818739 l 5.463383056113063 7.519701663042565 a30.29486242603883,30.29486242603883 0 0,0 -0.42452143421718425,0.3028847715708004 l -5.333134294046994 -7.612630696457584" fill="#ff6209" stroke="none" /><line stroke="#e1ed5e" stroke-width="0.3" x1="143.8653032363475" x2="146.44561519142675" y1="172.8068346515853" y2="177.08958963109032" /><path d="M 144.38136562736335 173.6633856474863 a86.0,86.0 0 0,1 -40.68145358897372,12.25698825130547" fill="none" id="id18" stroke="none" /><text fill="#e1ed5e" style="font-size:6.75px; font-family:Arial;" text-anchor="middle"><textPath startOffset="21.466115282336833" xlink:href="#id18">June</textPath></text><path d="M 110.21172684928248 118.3499491758327 l 4.504784151493764 8.094865975955411 a30.26390497685668,30.26390497685668 0 0,0 -0.45738443159186576,0.249402460499955 l -4.3647769080332495 -8.171209088215138" fill="#ff6109" stroke="none" /><path d="M 109.89434966115114 118.52300852407294 l 3.345237630406397 6.262550573319656 a28.100010879377113,28.100010879377113 0 0,0 -0.428604243988997,0.22422548336747633 l -3.236942483890904 -6.319205475631849" fill="#ff4206" stroke="none" /><path d="M 109.2508944713604 118.85261126421891 l 2.4416595032955724 4.9759142316157075 a26.542691004415573,26.542691004415573 0 0,0 -0.411901274072534,0.1977376427540197 l -2.355645561222806 -5.017206150869287" fill="#ff2c04" stroke="none" /><path d="M 108.59647513512805 119.15986991738527 l 4.531055817078505 10.098841522717073 a32.06874278852099,32.06874278852099 0 0,0 -0.5055856060475026,0.22163387189986827 l -4.356549536373248 -10.175339947911397" fill="#ff7a0b" stroke="none" /><path d="M 108.2653958097858 119.30500536409082 l 5.791024157955533 13.525759081077606 a35.71333135348273,35.71333135348273 0 0,0 -0.5672102515624122,0.2370939311552018 l -5.55734244689566 -13.62343805525278" fill="#ffac0f" stroke="none" /><path d="M 107.59598834532513 119.57807347666477 l 3.232660987320034 8.331934102275188 a29.937070154340134,29.937070154340134 0 0,0 -0.482029282017676,0.18226222885299714 l -3.0887614845420828 -8.386344581234816" fill="#ff5d08" stroke="none" /><path d="M 107.2578585660854 119.70592522655815 l 5.746433676548444 15.60223188676928 a37.62681989580359,37.62681989580359 0 0,0 -0.609698609821423,0.21861622944445464 l -5.477015506097286 -15.698835657253696" fill="#ffc512" stroke="none" /><path d="M 106.57524785965236 119.94407469862006 l 2.7318893556267563 8.286380458951351 a29.725097166328727,29.725097166328727 0 0,0 -0.48731983187927397,0.1560244211146685 l -2.5888481786565416 -8.332177726725726" fill="#ff5a08" stroke="none" /><path d="M 105.88484417918355 120.15858648285463 l 2.749579725034081 9.418709993149397 a30.81184419970939,30.81184419970939 0 0,0 -0.5104038214426564,0.14424521822566588 l -2.5870447354868187 -9.464644004713582" fill="#ff6909" stroke="none" /><path d="M 105.53697534728816 120.25689768951611 l 2.806996000384945 10.269330677538155 a31.64604992994131,31.64604992994131 0 0,0 -0.5266950903704299,0.13910496042401396 l -2.6298104672030176 -10.316126987265754" fill="#ff750a" stroke="none" /><path d="M 104.83641907484287 120.43548508189849 l 1.4060494180968814 5.941028158082935 a27.10514459626182,27.10514459626182 0 0,0 -0.4549532056178685,0.10354586839815712 l -1.303576063086151 -5.964350760058777" fill="#ff3404" stroke="none" /><path d="M 104.13013068566511 120.58985236759428 l 2.857019575733103 14.243038720262257 a35.52675851121,35.52675851121 0 0,0 -0.6006261819414234,0.11511143727143493 l -2.6114257792199753 -14.290107355882162" fill="#ffa90f" stroke="none" /><path d="M 103.41894727170886 120.7198165907248 l 1.3140903270564344 7.963770247514205 a29.0714602113159,29.0714602113159 0 0,0 -0.4944420466673333,0.0772216789751651 l -1.176812416780584 -7.985210233836476" fill="#ff5007" stroke="none" /><path d="M 103.06178313531738 120.77559828337769 l 1.3472398460295567 9.141638253085596 a30.24037905894599,30.24037905894599 0 0,0 -0.5156292920324315,0.07146152145088557 l -1.1896819628102948 -9.163474340029083" fill="#ff6108" stroke="none" /><path d="M 102.34483914955558 120.86867818915974 l 0.6094679419490041 5.424163252116384 a26.458296268788764,26.458296268788764 0 0,0 -0.45302575655276417,0.04695797197725753 l -0.5160095887906373 -5.4338505925494" fill="#ff2b04" stroke="none" /><path d="M 101.98527174616119 120.90594882070398 l 2.5809678554804942 27.17894011179683 a48.3012120733066,48.3012120733066 0 0,0 -0.8283788565796296,0.07147601338213586 l -2.112744681159323 -27.219340377457627" fill="#b5ff20" stroke="none" /><path d="M 100.90346689309514 120.98055641714683 l 0.3635036357551967 8.441381301391818 a29.449204292043994,29.449204292043994 0 0,0 -0.5066380080995703,0.017449637390335594 l -0.21814527598097413 -8.446387737208246" fill="#ff5607" stroke="none" /><line stroke="#e1ed5e" stroke-width="0.3" x1="102.19456741930631" x2="102.32365962044197" y1="184.97166512339345" y2="189.96999836594603" /><path d="M 102.22038585953345 185.97133177190398 a86.0,86.0 0 0,1 -42.740103519485714,-10.115201625700543" fill="none" id="id19" stroke="none" /><text fill="#e1ed5e" style="font-size:6.75px; font-family:Arial;" text-anchor="middle"><textPath startOffset="22.20632615414155" xlink:href="#id19">July</textPath></text><path d="M 100.54218724476979 120.99299961872073 l 0.2532016001987079 9.803736896628449 a30.807006076711545,30.807006076711545 0 0,0 -0.5302330395164325,0.009128442632066858 l -0.08440887078960742 -9.806642816539675" fill="#ff6909" stroke="none" /><path d="M 99.81925306533755 120.99922214144158 l -0.05689448632885137 6.610015042711421 a27.610259892579556,27.610259892579556 0 0,0 -0.47521242370085653,-0.008181212833803955 l 0.17066659992237584 -6.608056352598457" fill="#ff3b05" stroke="none" /><path d="M 99.45781275523022 120.99299961872073 l -0.5626384317961995 21.784851078875075 a42.79211551304046,42.79211551304046 0 0,0 -0.7361866877928243,-0.02535575805250674 l 0.9375454712636668 -21.771938522396475" fill="#f7ff18" stroke="none" /><path d="M 98.73552117531835 120.96189622390904 l -0.4924883010877273 8.16422423008096 a29.179064861324264,29.179064861324264 0 0,0 -0.5010979711733579,-0.034558649931801265 l 0.6329490330400152 -8.154537235632873" fill="#ff5207" stroke="none" /><path d="M 98.01472825383883 120.90594882070398 l -0.9008715219786596 9.486647845028331 a30.529326147986165,30.529326147986165 0 0,0 -0.5227309776386833,-0.05418320315026199 l 1.0640350962229361 -9.469735273422309" fill="#ff6509" stroke="none" /><path d="M 97.65516085044442 120.86867818915974 l -0.8103433992369891 7.211921391107623 a28.257304360174146,28.257304360174146 0 0,0 -0.4828938873027099,-0.058471724791346165 l 0.9343647095910883 -7.196904137590929" fill="#ff4506" stroke="none" /><path d="M 96.93821686468263 120.77559828337769 l -3.178003755053859 21.56420831915685 a42.79712798281301,42.79712798281301 0 0,0 -0.7278856788579606,-0.1136807733125645 l 3.548725297520337 -21.50630923849718" fill="#f7ff18" stroke="none" /><path d="M 96.22490169976321 120.6578951692458 l -1.6353112784660722 8.948664716232278 a30.096858973350024,30.096858973350024 0 0,0 -0.5088266492956068,-0.09751783835513252 l 1.7891055423333742 -8.919189679528676" fill="#ff5f08" stroke="none" /><path d="M 95.86986931433489 120.58985236759428 l -1.298822358055735 6.47499138390865 a27.603972512017044,27.603972512017044 0 0,0 -0.4650724368200062,-0.097460450950239 l 1.410086256305128 -6.45167495223187" fill="#ff3b05" stroke="none" /><path d="M 95.51606077576429 120.51570834832081 l -2.285653185655042 10.457722952367156 a31.70458685954586,31.70458685954586 0 0,0 -0.5321537161816065,-0.12111645325917711 l 2.4653270512295107 -10.416829765530293" fill="#ff750a" stroke="none" /><path d="M 94.81253420990036 120.34920634021253 l -1.8118182845016215 7.107336339963643 a28.334638051425728,28.334638051425728 0 0,0 -0.4715822284976444,-0.12454915269040484 l 1.933890955810755 -7.075095837969657" fill="#ff4606" stroke="none" /><line stroke="#e1ed5e" stroke-width="0.3" x1="58.666819895761336" x2="56.23545636021788" y1="174.27360380694188" y2="178.64263932499728" /><path d="M 58.180547188652646 175.14741091055294 a86.0,86.0 0 0,1 -31.652253787137756,-30.449443065178592" fill="none" id="id20" stroke="none" /><text fill="#e1ed5e" style="font-size:6.75px; font-family:Arial;" text-anchor="middle"><textPath startOffset="22.20632615414155" xlink:href="#id20">August</textPath></text><line stroke="#e1ed5e" stroke-width="0.3" x1="26.63291911575756" x2="22.317208475507996" y1="142.92168965132927" y2="145.44649492493687" /><path d="M 25.769776987707644 143.4266507060508 a86.0,86.0 0 0,1 -11.730757126820373,-40.83630448921669" fill="none" id="id21" stroke="none" /><text fill="#e1ed5e" style="font-size:6.75px; font-family:Arial;" text-anchor="middle"><textPath startOffset="21.46611528233685" xlink:href="#id21">September</textPath></text><line stroke="#e1ed5e" stroke-width="0.3" x1="15.007084014347285" x2="10.007500721073583" y1="101.09737516637583" y2="101.16192664675087" /><path d="M 14.007167355692545 101.11028546245083 a86.0,86.0 0 0,1 10.666146001902534,-42.60595125391555" fill="none" id="id22" stroke="none" /><text fill="#e1ed5e" style="font-size:6.75px; font-family:Arial;" text-anchor="middle"><textPath startOffset="22.20632615414155" xlink:href="#id22">October</textPath></text><line stroke="#e1ed5e" stroke-width="0.3" x1="26.266209847984243" x2="21.928928074336255" y1="57.711370442889674" y2="55.22380399835377" /><path d="M 25.398753493254645 57.213857153982495 a86.0,86.0 0 0,1 29.58750427330803,-30.492523968695096" fill="none" id="id23" stroke="none" /><text fill="#e1ed5e" style="font-size:6.75px; font-family:Arial;" text-anchor="middle"><textPath startOffset="21.46611528233685" xlink:href="#id23">November</textPath></text><line stroke="#e1ed5e" stroke-width="0.3" x1="56.762969772571076" x2="54.21961505331055" y1="26.818313649435495" y2="22.513508569990535" /><path d="M 56.25429882871897 25.957352633546506 a86.0,86.0 0 0,1 42.265352541879196,-11.944610805530505" fill="none" id="id24" stroke="none" /><text fill="#e1ed5e" style="font-size:6.75px; font-family:Arial;" text-anchor="middle"><textPath startOffset="22.20632615414155" xlink:href="#id24">December</textPath></text></svg>