<?xml version="1.0" encoding="utf-8" ?>
<svg baseProfile="full" height="200mm" version="1.1" viewBox="0,0,200,200" width="200mm" xmlns="http://www.w3.org/2000/svg" xmlns:ev="http://www.w3.org/2001/xml-events" xmlns:xlink="http://www.w3.org/1999/xlink"><defs /><rect fill="#1a1a1a" height="200" width="200" x="0" y="0" /><rect fill="#1a1a1a" height="200" width="180" x="10" y="0" /><text alignment-baseline="middle" fill="#e1ed5e" style="dominant-baseline: central; font-size:9.0px; font-family:Arial;" text-anchor="middle" x="100.0" y="100.0">2025</text><line stroke="#e1ed5e" stroke-width="0.3" x1="100.0" x2="100.0" y1="15.0" y2="10.0" /><path d="M 100.0 14.0 a86.0,86.0 0 0,1 42.46469731375804,11.215312516191453" fill="none" id="id13" stroke="none" /><text fill="#e1ed5e" style="font-size:6.75px; font-family:Arial;" text-anchor="middle"><textPath startOffset="22.20632615414155" xlink:href="#id13">January</textPath></text><path d="M 101.08401301168833 79.027996857942 l 1.1390583143526876 -22.036944473928624 a43.06636298963899,43.06636298963899 0 0,0 0.739998961195757,0.044638758188834 l -1.5182193243880566 22.01407244635949" fill="#f4ff19" stroke="none" /><path d="M 102.52436894288641 79.15227682838746 l 0.9553926913407061 -7.890194658502889 a28.947826554708826,28.947826554708826 0 0,0 0.494160450551075,0.06415620898142287 l -1.0910678703996273 7.872580126357329" fill="#ff4f07" stroke="none" /><path d="M 103.59715602781102 79.31037775812273 l 1.5963421589042823 -9.18161902935601 a30.31935814788377,30.31935814788377 0 0,0 0.5134148420198087,0.09382328071403764 l -1.754152122026992 9.152780267291234" fill="#ff6209" stroke="none" /><path d="M 104.66035177308747 79.52364482259891 l 5.171563798984746 -22.72248583939968 a44.303571289583246,44.303571289583246 0 0,0 0.7421403315544091,0.17564063888648823 l -5.561927817501679 22.630099288372325" fill="#e5ff1a" stroke="none" /><path d="M 106.40334571778207 80.00007090966166 l 2.669106143411093 -8.336569030556456 a29.753428517217003,29.753428517217003 0 0,0 0.4864220527210912,0.16036570306584896 l -2.812211018374602 8.28938960323137" fill="#ff5a08" stroke="none" /><path d="M 106.74666289553966 80.11325718540242 l 1.4928756088514823 -4.400461939048829 a25.646799205961138,25.646799205961138 0 0,0 0.41684352891287046,0.1454285223004552 l -1.5684011418276265 4.3741125635761655" fill="#ff1f03" stroke="none" /><path d="M 107.08798089147638 80.2323363322302 l 4.427258919336212 -12.347178502246646 a34.11691421429536,34.11691421429536 0 0,0 0.5510981091233238,0.2029740844983816 l -4.639139354232111 12.26914114994194" fill="#ff970d" stroke="none" /><path d="M 108.76106565485865 80.91482961587045 l 2.4024910311267855 -5.23360427620692 a26.758695761591856,26.758695761591856 0 0,0 0.41695372811418824,0.19576536608871642 l -2.492222970540572 5.1914739274782" fill="#ff2f04" stroke="none" /><path d="M 109.08828744355905 81.06846463323043 l 3.7974660512627527 -7.9103861206038255 a29.774677030383213,29.774677030383213 0 0,0 0.46013039104018394,0.22578398455907006 l -3.933067709313369 7.843846975909924" fill="#ff5a08" stroke="none" /><line stroke="#e1ed5e" stroke-width="0.3" x1="143.23703022742887" x2="145.7803849466894" y1="26.81831364943548" y2="22.513508569990506" /><path d="M 143.74570117128098 25.957352633546492 a86.0,86.0 0 0,1 28.547481713284135,27.462654790039103" fill="none" id="id14" stroke="none" /><text fill="#e1ed5e" style="font-size:6.75px; font-family:Arial;" text-anchor="middle"><textPath startOffset="19.985693538727396" xlink:href="#id14">February</textPath></text><path d="M 111.90073688211348 82.69761687909136 l 6.183945047190293 -8.990786660105549 a31.912168488169584,31.912168488169584 0 0,0 0.4499142551288997,0.31519368784368923 l -6.337790441902844 8.883008129497926" fill="#ff780b" stroke="none" /><path d="M 112.19680574252982 82.90503203632743 l 1.4961388266352407 -2.096978983714726 a23.575995389496402,23.575995389496402 0 0,0 0.328329060632367,0.23854502572946387 l -1.5320132036213965 2.0709147231685874" fill="#ff0000" stroke="none" /><path d="M 112.48926042617603 83.11751280151076 l 6.4337529644049125 -8.696892238083056 a31.817999436486318,31.817999436486318 0 0,0 0.43750331985709656,0.32951843012133675 l -6.582502438020392 8.584857218455872" fill="#ff770b" stroke="none" /><path d="M 113.06298171725822 83.55741782278167 l 5.474296631844724 -6.890583955472978 a29.800458559691542,29.800458559691542 0 0,0 0.39889560106423866,0.3225458347309936 l -5.592095631473454 6.795332023477855" fill="#ff5b08" stroke="none" /><path d="M 113.6212207817346 84.01681056812373 l 5.585771991273138 -6.554364934713144 a29.611651899368013,29.611651899368013 0 0,0 0.38510122695384424,0.333955989163868 l -5.697767016873747 6.457243952129605" fill="#ff5808" stroke="none" /><path d="M 114.16331599549186 84.49514656593476 l 9.96046260795138 -10.903909290799538 a35.76841403761359,35.76841403761359 0 0,0 0.45100924030103856,0.41916393609715025 l -10.146679732047266 10.730840768627747" fill="#ffad10" stroke="none" /><path d="M 114.94478906791727 85.2469230424477 l 7.968440068790183 -7.866220729663877 a32.1970293246778,32.1970293246778 0 0,0 0.38595918493430265,0.39776486684496876 l -8.102663517427594 7.7278916672687945" fill="#ff7c0b" stroke="none" /><path d="M 115.19652480421416 85.50635884689758 l 3.5799319914984635 -3.4143496822971917 a25.947089732030044,25.947089732030044 0 0,0 0.30547468959630913,0.3258591002545581 l -3.6381740030652354 3.352221165164579" fill="#ff2303" stroke="none" /><path d="M 115.4437574822437 85.77008943001954 l 5.514341871170177 -5.080926178054067 a28.49825160280553,28.49825160280553 0 0,0 0.329299142035477,0.3636203373648976 l -5.600984653821689 4.985253053419621" fill="#ff4806" stroke="none" /><path d="M 115.68641384162765 86.03803664274999 l 12.211561680695034 -10.86911122210781 a37.348082989756605,37.348082989756605 0 0,0 0.4232927443491351,0.48389678034067013 l -12.396846288622017 10.657298885564192" fill="#ffc212" stroke="none" /><path d="M 116.60985879189232 87.15038557335679 l 8.630621999161416 -6.6767674753178445 a31.91177620792652,31.91177620792652 0 0,0 0.33237491651701107,0.4373664295866034 l -8.74427285590254 6.527216269850207" fill="#ff780b" stroke="none" /><path d="M 117.04232023915458 87.72973835380427 l 5.961860412289057 -4.29246640893494 a28.346362872024105,28.346362872024105 0 0,0 0.28169181932624726,0.39843310151429895 l -6.0348648514191865 4.189206807088848" fill="#ff4606" stroke="none" /><path d="M 117.45458315368197 88.32363383020206 l 5.194041646379846 -3.474590692331595 a27.249067858774268,27.249067858774268 0 0,0 0.25744317840671616,0.3921036228746736 l -5.253081460144487 3.3846690054792474" fill="#ff3605" stroke="none" /><line stroke="#e1ed5e" stroke-width="0.3" x1="172.23445277983987" x2="176.4835382374775" y1="55.19839476539836" y2="52.563006222186495" /><path d="M 173.08426987136738 54.67131705675599 a86.0,86.0 0 0,1 12.851231095245387,41.99856678651699" fill="none" id="id15" stroke="none" /><text fill="#e1ed5e" style="font-size:6.75px; font-family:Arial;" text-anchor="middle"><textPath startOffset="22.20632615414155" xlink:href="#id15">March</textPath></text><path d="M 118.03404312379186 89.2402003453031 l 27.90521880301748 -16.649320486809227 a53.49463200463679,53.49463200463679 0 0,0 0.46499654953411657,0.7948298339999472 l -28.18767502702192 16.16651124045538" fill="#7bff26" stroke="none" /><path d="M 118.56541770881063 90.18545643968196 l 7.415084183763759 -3.919958487679891 a29.387463740454386,29.387463740454386 0 0,0 0.23256758366726865,0.4492465468700427 l -7.481461200591145 3.7917392185495036" fill="#ff5507" stroke="none" /><path d="M 118.89224826269711 90.83032412892265 l 5.146027322420044 -2.4977123905084233 a26.720154227710378,26.720154227710378 0 0,0 0.1972733796329072,0.4155080484911097 l -5.188258895894707 2.408761926376773" fill="#ff2e04" stroke="none" /><path d="M 119.196687751892 91.48605970444005 l 9.985049698117438 -4.428478395685318 a31.9230324715679,31.9230324715679 0 0,0 0.21845887315038456,0.5042331989623204 l -10.059799281110504 4.2559460521363945" fill="#ff780b" stroke="none" /><path d="M 119.34039704204932 91.81776055985345 l 15.05503120625274 -6.369252391283149 a37.346906149027404,37.346906149027404 0 0,0 0.24538395764106205,0.5942167171087598 l -15.16243685078 6.109161103721086" fill="#ffc212" stroke="none" /><path d="M 119.61058180528143 92.48833698450437 l 8.160509680992977 -3.125812347994707 a29.73868531808168,29.73868531808168 0 0,0 0.17899206515236235,0.47960974535236794 l -8.213106334646964 2.9848794656130058" fill="#ff5a08" stroke="none" /><path d="M 119.97218684219823 93.5106431181261 l 6.893556836865799 -2.2398523933987105 a28.248314604603827,28.248314604603827 0 0,0 0.14627853838291235,0.4637429408891106 l -6.931090859016917 2.1208592860831805" fill="#ff4506" stroke="none" /><path d="M 120.08093135843002 93.85539295169968 l 7.725171767627173 -2.363841798242356 a29.078739189159506,29.078739189159506 0 0,0 0.14233918609868748,0.47989697492498684 l -7.764716850837562 2.2305154365708395" fill="#ff5007" stroke="none" /><path d="M 120.18372546131832 94.20196356495316 l 4.54461029249023 -1.305498140541305 a25.728404393192797,25.728404393192797 0 0,0 0.11861190083236028,0.42671011577215384 l -4.566408963888954 1.2270767213501994" fill="#ff2003" stroke="none" /><path d="M 120.37134235888165 94.90015583598534 l 13.748122086383924 -3.4417604374430155 a35.172387794964735,35.172387794964735 0 0,0 0.14197451531046154,0.5885760242358602 l -13.805329401955206 3.2045991815477493" fill="#ffa50f" stroke="none" /><path d="M 120.67395015179393 96.31383870115 l 62.02185045538181 -11.058483896549978 a84.0,84.0 0 0,0 0.2415525539191079,1.4256568467366484 l -62.20301487082114 9.98924126149749" fill="#4dd2ff" stroke="none" /><path d="M 120.96714384426684 98.82574320788733 l 7.151199083671555 -0.4005001424191279 a28.162405231371835,28.162405231371835 0 0,0 0.02294081604642262,0.48424436856336656 l -7.157033507951474 0.2773446672327616" fill="#ff4306" stroke="none" /><line stroke="#e1ed5e" stroke-width="0.3" x1="184.98032266829074" x2="189.97916517819016" y1="98.17113171792111" y2="98.06355123074" /><path d="M 185.9800911702706 98.14961562048488 a86.0,86.0 0 0,1 -9.607161424134198,41.387399972396054" fill="none" id="id16" stroke="none" /><text fill="#e1ed5e" style="font-size:6.75px; font-family:Arial;" text-anchor="middle"><textPath startOffset="21.466115282336823" xlink:href="#id16">April</textPath></text><path d="M 120.99513854157772 99.54816195383933 l 5.446149427299983 -0.11720701492190978 a26.447410492043613,26.447410492043613 0 0,0 0.0058776131676772665,0.4552276171935744 l -5.447360047585375 0.02344313966787263" fill="#ff2b04" stroke="none" /><path d="M 120.9764740272857 100.99374915477107 l 10.770375072077186 0.5102407158858904 a31.782454487794947,31.782454487794947 0 0,0 -0.030592351569016987,0.5462469880441596 l -10.759996369620639 -0.6955594202654733" fill="#ff760a" stroke="none" /><path d="M 120.92983693683757 101.71520430193887 l 5.444653457455671 0.44619043430566535 a26.462905561644817,26.462905561644817 0 0,0 -0.04111252274429955,0.45367326263207985 l -5.436166338434297 -0.5398450854863157" fill="#ff2b04" stroke="none" /><path d="M 120.89721153311464 102.0752229133903 l 5.428348292030357 0.5390687049146928 a26.455049060110028,26.455049060110028 0 0,0 -0.04890114848524913,0.45276390175818265 l -5.4182648420440565 -0.632428928557667" fill="#ff2b04" stroke="none" /><path d="M 120.76222939487914 103.15116336523771 l 13.085300180435345 1.986006308257832 a34.23515401756025,34.23515401756025 0 0,0 -0.09344280797417341,0.5818684544533035 l -13.049175618099884 -2.2109539924043404" fill="#ff980e" stroke="none" /><path d="M 120.49622156327973 104.57218783832717 l 6.4247336279017455 1.4331953266260182 a27.582647722136905,27.582647722136905 0 0,0 -0.10736142928306651,0.4625102274417912 l -6.399111632688126 -1.5435742114163744" fill="#ff3b05" stroke="none" /><path d="M 120.41448212921028 104.9243191809786 l 6.37605098841351 1.5380115930649285 a27.55892566410468,27.55892566410468 0 0,0 -0.115207707785327,0.4601975241199116 l -6.348631966333123 -1.647536956582236" fill="#ff3b05" stroke="none" /><path d="M 120.02730092923936 106.31721596034902 l 19.367903966663178 6.109222230644269 a41.308577013796054,41.308577013796054 0 0,0 -0.21973753104443616,0.6762825817950022 l -19.259874184602495 -6.441703712417066" fill="#fff417" stroke="none" /><path d="M 119.67450827220406 107.3425965602758 l 6.157389952314336 2.2979598604766105 a27.572219605675333,27.572219605675333 0 0,0 -0.16977360568180408,0.4432253118560543 l -6.116922067039025 -2.4036087391658087" fill="#ff3b05" stroke="none" /><path d="M 119.41010516605496 108.01547362559984 l 10.67461597006624 4.408121544910875 a32.548980979424144,32.548980979424144 0 0,0 -0.21830914448295669,0.5160183300789432 l -10.597155844390976 -4.591214400655981" fill="#ff810b" stroke="none" /><path d="M 118.97047184881838 109.00673069616215 l 9.850493190631468 4.676780846540879 a31.904333779981634,31.904333779981634 0 0,0 -0.23980929462129824,0.49407817608667415 l -9.768530639395456 -4.845647978592829" fill="#ff780b" stroke="none" /><path d="M 118.64920377521936 109.65438752849418 l 4.85326995349391 2.512458412497346 a26.465041309634856,26.465041309634856 0 0,0 -0.21291439757082856,0.4027538013183089 l -4.8093030476981875 -2.5956272289017894" fill="#ff2b04" stroke="none" /><line stroke="#e1ed5e" stroke-width="0.3" x1="174.80103733775053" x2="179.2010983576182" y1="140.37084112569926" y2="142.7455964860345" /><path d="M 175.68104954172406 140.8457921977663 a86.0,86.0 0 0,1 -30.038265399797805,32.042727171017184" fill="none" id="id17" stroke="none" /><text fill="#e1ed5e" style="font-size:6.75px; font-family:Arial;" text-anchor="middle"><textPath startOffset="22.206326154141568" xlink:href="#id17">May</textPath></text><path d="M 116.93607887273984 112.41649034213515 l 7.514776965276755 5.50937181586021 a30.317996063706453,30.317996063706453 0 0,0 -0.31218690786471753,0.418225379940145 l -7.418828790716945 -5.63791007530967" fill="#ff6209" stroke="none" /><path d="M 116.498646956653 112.99209946851258 l 14.128733637008766 11.125876761798144 a38.98349932310903,38.98349932310903 0 0,0 -0.41968909154174655,0.5236266718461989 l -13.935126633412166 -11.367431267222594" fill="#ffd714" stroke="none" /><path d="M 116.27256486870786 113.27417163493432 l 4.491798255996652 3.664136630007044 a26.79673604849608,26.79673604849608 0 0,0 -0.2946415973045061,0.3549147846658481 l -4.428060658798603 -3.7409126717866625" fill="#ff3004" stroke="none" /><path d="M 115.80600337817218 113.82643327865902 l 7.06974869606657 6.184321634274819 a30.392932486805947,30.392932486805947 0 0,0 -0.3478415407828253,0.3908036585123603 l -6.9622483056354065 -6.305099462528046" fill="#ff6309" stroke="none" /><path d="M 115.32070863581623 114.36230785411682 l 6.371589805397471 5.973009243928839 a29.73349850153444,29.73349850153444 0 0,0 -0.3532530038436295,0.3703843622431475 l -6.267830250174876 -6.081800722754493" fill="#ff5a08" stroke="none" /><path d="M 115.07121518719521 114.62390073753431 l 4.42222594577694 4.290974049984758 a27.161861781405467,27.161861781405467 0 0,0 -0.328476640015889,0.33274510211665875 l -4.347708680705516 -4.366459646082081" fill="#ff3505" stroke="none" /><path d="M 114.55890576462653 115.13401014063108 l 4.603664722285884 4.785518205662166 a27.640400091255316,27.640400091255316 0 0,0 -0.3457210774797058,0.32690085757869963 l -4.52060781041537 -4.864053699986788" fill="#ff3c05" stroke="none" /><path d="M 114.29624159901734 115.38237550388516 l 5.557296441152884 5.979503077934421 a29.16321020150025,29.16321020150025 0 0,0 -0.37065114008442696,0.33858102841341503 l -5.4535457516015935 -6.074276872934419" fill="#ff5207" stroke="none" /><path d="M 113.75828350139079 115.86535959552629 l 5.3734940409097485 6.196442691040117 a29.201849805442492,29.201849805442492 0 0,0 -0.3825922394899555,0.32605340665471666 l -5.266036324842745 -6.28802048791778" fill="#ff5207" stroke="none" /><path d="M 113.20401910651253 116.32954008644616 l 5.106516329272632 6.31527888806378 a29.121530425674223,29.121530425674223 0 0,0 -0.39250623750432273,0.3118306935715238 l -4.997052599050958 -6.4022434956404295" fill="#ff5107" stroke="none" /><path d="M 112.92097659922987 116.55440617244103 l 10.728314349407622 13.74515865126686 a38.43634466074245,38.43634466074245 0 0,0 -0.5250610983280715,0.4025944604441384 l -10.490124522586056 -13.927792453538371" fill="#ffd013" stroke="none" /><path d="M 112.34349029814194 116.9893568818739 l 5.463383056113063 7.519701663042565 a30.29486242603883,30.29486242603883 0 0,0 -0.42452143421718425,0.3028847715708004 l -5.333134294046994 -7.612630696457584" fill="#ff6209" stroke="none" /><line stroke="#e1ed5e" stroke-width="0.3" x1="143.8653032363475" x2="146.44561519142675" y1="172.8068346515853" y2="177.08958963109032" /><path d="M 144.38136562736335 173.6633856474863 a86.0,86.0 0 0,1 -40.68145358897372,12.25698825130547" fill="none" id="id18" stroke="none" /><text fill="#e1ed5e" style="font-size:6.75px; font-family:Arial;" text-anchor="middle"><textPath startOffset="21.466115282336833" xlink:href="#id18">June</textPath></text><path d="M 110.21172684928248 118.3499491758327 l 4.504784151493764 8.094865975955411 a30.26390497685668,30.26390497685668 0 0,0 -0.45738443159186576,0.249402460499955 l -4.3647769080332495 -8.171209088215138" fill="#ff6109" stroke="none" /><path d="M 109.89434966115114 118.52300852407294 l 3.345237630406397 6.262550573319656 a28.100010879377113,28.100010879377113 0 0,0 -0.428604243988997,0.22422548336747633 l -3.236942483890904 -6.319205475631849" fill="#ff4206" stroke="none" /><path d="M 109.2508944713604 118.85261126421891 l 2.4416595032955724 4.9759142316157075 a26.542691004415573,26.542691004415573 0 0,0 -0.411901274072534,0.1977376427540197 l -2.355645561222806 -5.017206150869287" fill="#ff2c04" stroke="none" /><path d="M 108.59647513512805 119.15986991738527 l 4.531055817078505 10.098841522717073 a32.06874278852099,32.06874278852099 0 0,0 -0.5055856060475026,0.22163387189986827 l -4.356549536373248 -10.175339947911397" fill="#ff7a0b" stroke="none" /><path d="M 108.2653958097858 119.30500536409082 l 5.791024157955533 13.525759081077606 a35.71333135348273,35.71333135348273 0 0,0 -0.5672102515624122,0.2370939311552018 l -5.55734244689566 -13.62343805525278" fill="#ffac0f" stroke="none" /><path d="M 107.59598834532513 119.57807347666477 l 3.232660987320034 8.331934102275188 a29.937070154340134,29.937070154340134 0 0,0 -0.482029282017676,0.18226222885299714 l -3.0887614845420828 -8.386344581234816" fill="#ff5d08" stroke="none" /><path d="M 107.2578585660854 119.70592522655815 l 5.746433676548444 15.60223188676928 a37.62681989580359,37.62681989580359 0 0,0 -0.609698609821423,0.21861622944445464 l -5.477015506097286 -15.698835657253696" fill="#ffc512" stroke="none" /><path d="M 106.57524785965236 119.94407469862006 l 2.7318893556267563 8.286380458951351 a29.725097166328727,29.725097166328727 0 0,0 -0.48731983187927397,0.1560244211146685 l -2.5888481786565416 -8.332177726725726" fill="#ff5a08" stroke="none" /><path d="M 105.88484417918355 120.15858648285463 l 2.749579725034081 9.418709993149397 a30.81184419970939,30.81184419970939 0 0,0 -0.5104038214426564,0.14424521822566588 l -2.5870447354868187 -9.464644004713582" fill="#ff6909" stroke="none" /><path d="M 105.53697534728816 120.25689768951611 l 2.806996000384945 10.269330677538155 a31.64604992994131,31.64604992994131 0 0,0 -0.5266950903704299,0.13910496042401396 l -2.6298104672030176 -10.316126987265754" fill="#ff750a" stroke="none" /><path d="M 104.83641907484287 120.43548508189849 l 1.4060494180968814 5.941028158082935 a27.10514459626182,27.10514459626182 0 0,0 -0.4549532056178685,0.10354586839815712 l -1.303576063086151 -5.964350760058777" fill="#ff3404" stroke="none" /><path d="M 104.13013068566511 120.58985236759428 l 2.857019575733103 14.243038720262257 a35.52675851121,35.52675851121 0 0,0 -0.6006261819414234,0.11511143727143493 l -2.6114257792199753 -14.290107355882162" fill="#ffa90f" stroke="none" /><path d="M 103.41894727170886 120.7198165907248 l 1.3140903270564344 7.963770247514205 a29.0714602113159,29.0714602113159 0 0,0 -0.4944420466673333,0.0772216789751651 l -1.176812416780584 -7.985210233836476" fill="#ff5007" stroke="none" /><path d="M 103.06178313531738 120.77559828337769 l 1.3472398460295567 9.141638253085596 a30.24037905894599,30.24037905894599 0 0,0 -0.5156292920324315,0.07146152145088557 l -1.1896819628102948 -9.163474340029083" fill="#ff6108" stroke="none" /><path d="M 102.34483914955558 120.86867818915974 l 0.6094679419490041 5.424163252116384 a26.458296268788764,26.458296268788764 0 0,0 -0.45302575655276417,0.04695797197725753 l -0.5160095887906373 -5.4338505925494" fill="#ff2b04" stroke="none" /><path d="M 101.98527174616119 120.90594882070398 l 2.5809678554804942 27.17894011179683 a48.3012120733066,48.3012120733066 0 0,0 -0.8283788565796296,0.07147601338213586 l -2.112744681159323 -27.219340377457627" fill="#b5ff20" stroke="none" /><path d="M 100.90346689309514 120.98055641714683 l 0.3635036357551967 8.441381301391818 a29.449204292043994,29.449204292043994 0 0,0 -0.5066380080995703,0.017449637390335594 l -0.21814527598097413 -8.446387737208246" fill="#ff5607" stroke="none" /><line stroke="#e1ed5e" stroke-width="0.3" x1="102.19456741930631" x2="102.32365962044197" y1="184.97166512339345" y2="189.96999836594603" /><path d="M 102.22038585953345 185.97133177190398 a86.0,86.0 0 0,1 -42.740103519485714,-10.115201625700543" fill="none" id="id19" stroke="none" /><text fill="#e1ed5e" style="font-size:6.75px; font-family:Arial;" text-anchor="middle"><textPath startOffset="22.20632615414155" xlink:href="#id19">July</textPath></text><path d="M 100.54218724476979 120.99299961872073 l 0.2532016001987079 9.803736896628449 a30.807006076711545,30.807006076711545 0 0,0 -0.5302330395164325,0.009128442632066858 l -0.08440887078960742 -9.806642816539675" fill="#ff6909" stroke="none" /><path d="M 99.81925306533755 120.99922214144158 l -0.05689448632885137 6.610015042711421 a27.610259892579556,27.610259892579556 0 0,0 -0.47521242370085653,-0.008181212833803955 l 0.17066659992237584 -6.608056352598457" fill="#ff3b05" stroke="none" /><path d="M 99.45781275523022 120.99299961872073 l -0.5626384317961995 21.784851078875075 a42.79211551304046,42.79211551304046 0 0,0 -0.7361866877928243,-0.02535575805250674 l 0.9375454712636668 -21.771938522396475" fill="#f7ff18" stroke="none" /><path d="M 98.73552117531835 120.96189622390904 l -0.4924883010877273 8.16422423008096 a29.179064861324264,29.179064861324264 0 0,0 -0.5010979711733579,-0.034558649931801265 l 0.6329490330400152 -8.154537235632873" fill="#ff5207" stroke="none" /><path d="M 98.01472825383883 120.90594882070398 l -0.9008715219786596 9.486647845028331 a30.529326147986165,30.529326147986165 0 0,0 -0.5227309776386833,-0.05418320315026199 l 1.0640350962229361 -9.469735273422309" fill="#ff6509" stroke="none" /><path d="M 97.65516085044442 120.86867818915974 l -0.8103433992369891 7.211921391107623 a28.257304360174146,28.257304360174146 0 0,0 -0.4828938873027099,-0.058471724791346165 l 0.9343647095910883 -7.196904137590929" fill="#ff4506" stroke="none" /><path d="M 96.93821686468263 120.77559828337769 l -3.178003755053859 21.56420831915685 a42.79712798281301,42.79712798281301 0 0,0 -0.7278856788579606,-0.1136807733125645 l 3.548725297520337 -21.50630923849718" fill="#f7ff18" stroke="none" /><path d="M 96.22490169976321 120.6578951692458 l -1.6353112784660722 8.948664716232278 a30.096858973350024,30.096858973350024 0 0,0 -0.5088266492956068,-0.09751783835513252 l 1.7891055423333742 -8.919189679528676" fill="#ff5f08" stroke="none" /><path d="M 95.86986931433489 120.58985236759428 l -1.298822358055735 6.47499138390865 a27.603972512017044,27.603972512017044 0 0,0 -0.4650724368200062,-0.097460450950239 l 1.410086256305128 -6.45167495223187" fill="#ff3b05" stroke="none" /><path d="M 95.51606077576429 120.51570834832081 l -2.285653185655042 10.457722952367156 a31.70458685954586,31.70458685954586 0 0,0 -0.5321537161816065,-0.12111645325917711 l 2.4653270512295107 -10.416829765530293" fill="#ff750a" stroke="none" /><path d="M 94.81253420990036 120.34920634021253 l -1.8118182845016215 7.107336339963643 a28.334638051425728,28.334638051425728 0 0,0 -0.4715822284976444,-0.12454915269040484 l 1.933890955810755 -7.075095837969657" fill="#ff4606" stroke="none" /><path d="M 94.11515582081647 120.15858648285463 l -4.2502016007681505 14.559103678857122 a36.16679641779645,36.16679641779645 0 0,0 -0.5961063492630582,-0.1796019530980128 l 4.500182924471454 -14.483786356653384" fill="#ffb210" stroke="none" /><path d="M 93.76903079525671 120.05430185196036 l -1.941535905328989 6.248810710257843 a27.543485077870567,27.543485077870567 0 0,0 -0.45155399971985877,-0.14457333110497728 l 2.048811250139788 -6.214464532493159" fill="#ff3a05" stroke="none" /><path d="M 93.08242187328487 119.8279376855182 l -3.9556207146450753 11.338043402015257 a33.00825397066996,33.00825397066996 0 0,0 -0.5348601506659593,-0.19178182061614377 l 4.150200425940762 -11.268274040359156" fill="#ff870c" stroke="none" /><path d="M 92.7421414339146 119.70592522655815 l -3.7717563898990507 10.240754723363542 a31.913258155511443,31.913258155511443 0 0,0 -0.5138487111877706,-0.1942936142848046 l 3.9474753218471044 -10.174312858972105" fill="#ff780b" stroke="none" /><path d="M 92.06813273071674 119.44442032107085 l -8.2345334254113 20.18638532841625 a42.80132320207915,42.80132320207915 0 0,0 -0.6797839456746125,-0.28414974442409946 l 8.580788830583375 -20.041650540972178" fill="#f7ff18" stroke="none" /><path d="M 91.40352486487194 119.15986991738527 l -4.020863689770834 8.961722571236098 a30.822413972925396,30.822413972925396 0 0,0 -0.482197592276737,-0.2213532643158496 l 4.17452927781499 -8.891182236586175" fill="#ff6909" stroke="none" /><path d="M 91.07499286063937 119.00905698771935 l -5.560711739996478 11.843563227160113 a34.08401715724471,34.08401715724471 0 0,0 -0.5289309245337358,-0.25391898685554654 l 5.763755332530456 -11.746089963805003" fill="#ff960d" stroke="none" /><path d="M 90.7491055286396 118.85261126421891 l -3.7286046626499765 7.59860946209205 a29.46412183795401,29.46412183795401 0 0,0 -0.4533912302616133,-0.22733977510071765 l 3.85884980059435 -7.53330184608203" fill="#ff5608" stroke="none" /><line stroke="#e1ed5e" stroke-width="0.3" x1="58.666819895761336" x2="56.23545636021788" y1="174.27360380694188" y2="178.64263932499728" /><path d="M 58.180547188652646 175.14741091055294 a86.0,86.0 0 0,1 -31.652253787137756,-30.449443065178592" fill="none" id="id20" stroke="none" /><text fill="#e1ed5e" style="font-size:6.75px; font-family:Arial;" text-anchor="middle"><textPath startOffset="22.20632615414155" xlink:href="#id20">August</textPath></text><path d="M 89.7882731507175 118.34994917583269 l -5.834289440112893 10.48391876156492 a32.99797840763625,32.99797840763625 0 0,0 -0.49395024769275403,-0.28047784194952974 l 6.013888454726854 -10.381937753820758" fill="#ff870c" stroke="none" /><path d="M 89.1626897886671 117.98757091392108 l -8.47223230951546 14.06205751195151 a37.41706982916956,37.41706982916956 0 0,0 -0.5488207516652134,-0.3371305309127052 l 8.713032261112982 -13.914138514210427" fill="#ffc212" stroke="none" /><path d="M 88.8546689885994 117.79835938074946 l -4.633262109322885 7.3990143534171215 a29.729978876020247,29.729978876020247 0 0,0 -0.4313935994420915,-0.27533580584566825 l 4.7599375108119 -7.318164118747649" fill="#ff5a08" stroke="none" /><path d="M 88.54995079064634 117.60387380957326 l -5.945608499637684 9.14107353034303 a31.904562610123428,31.904562610123428 0 0,0 -0.45779294952691396,-0.30340020425988473 l 6.10207614790456 -9.037375304991826" fill="#ff780b" stroke="none" /><path d="M 87.95078237400918 117.19931262002967 l -5.636629024295092 8.045845607673815 a30.823808747122975,30.823808747122975 0 0,0 -0.4319335507567015,-0.30817311991784835 l 5.774289902900681 -7.947628225911748" fill="#ff6909" stroke="none" /><path d="M 87.65650970185807 116.9893568818739 l -5.274169384080597 7.259271385751122 a29.972952899907483,29.972952899907483 0 0,0 -0.4147900282690282,-0.30685174668436516 l 5.39834438276819 -7.1674096903269895" fill="#ff5d08" stroke="none" /><path d="M 87.36589467227662 116.77436683061367 l -3.9405138310430767 5.231840544971484 a27.54979425177992,27.54979425177992 0 0,0 -0.37634497651194937,-0.2885652798162923 l 4.0299875360485125 -5.163235923327825" fill="#ff3b05" stroke="none" /><path d="M 86.79598089348748 116.32954008644616 l -6.858212808631624 8.481619124944455 a31.907472021926182,31.907472021926182 0 0,0 -0.4241108839973426,-0.3490143842078279 l 7.003193821173656 -8.362309621879447" fill="#ff780b" stroke="none" /><path d="M 86.51685102203217 116.09983520530335 l -7.1971791368055476 8.59394183324384 a32.20960408580283,32.20960408580283 0 0,0 -0.42199876522805013,-0.3596365027950444 l 7.344043378610655 -8.468780940225843" fill="#ff7c0b" stroke="none" /><path d="M 85.97065885151581 115.62618273729859 l -5.924722635140349 6.59908384753444 a29.868497388517085,29.868497388517085 0 0,0 -0.37961501951158505,-0.34676931973859193 l 6.037437204118789 -6.496121761209272" fill="#ff5c08" stroke="none" /><path d="M 85.70375840098266 115.38237550388516 l -5.938923966078044 6.3901241387467005 a29.723789565518498,29.723789565518498 0 0,0 -0.37177973261761227,-0.351540942510834 l 6.048039533086473 -6.286948559489935" fill="#ff5a08" stroke="none" /><path d="M 85.18274418774928 114.88116024355367 l -8.464185297783391 8.500689961990531 a32.99600610974749,32.99600610974749 0 0,0 -0.3990307184426323,-0.4042160110668862 l 8.609256641281556 -8.353733456942981" fill="#ff870c" stroke="none" /><path d="M 84.9287848128048 114.62390073753433 l -4.739104135005015 4.598447278095668 a27.60339498832586,27.60339498832586 0 0,0 -0.3279460099660105,-0.34385008033849174 l 4.817556696349984 -4.516190081174675" fill="#ff3b05" stroke="none" /><path d="M 84.43433777217949 114.09645910891817 l -7.466728617897567 6.761963166042553 a31.073538708529725,31.073538708529725 0 0,0 -0.35563095422404395,-0.39955514708857787 l 7.5820184217699484 -6.632433849213111" fill="#ff6d0a" stroke="none" /><path d="M 83.95833913139862 113.55231037782056 l -4.463645095069545 3.770975102909839 a26.843319327360458,26.843319327360458 0 0,0 -0.29515380042012745,-0.35553176631456745 l 4.527894895383209 -3.69358207948151" fill="#ff3004" stroke="none" /><path d="M 83.28015986056508 112.70617746262583 l -8.772114819650769 6.66633452781204 a32.01771366690184,32.01771366690184 0 0,0 -0.3296890403166818,-0.4416723465171557 l 8.885565126662534 -6.514349301785576" fill="#ff7a0b" stroke="none" /><path d="M 83.06392112726016 112.41649034213515 l -9.526391126062553 6.9841634714247265 a32.81230998925726,32.81230998925726 0 0,0 -0.330029663265088,-0.4583823370651431 l 9.645200581703248 -6.819147528908445" fill="#ff850c" stroke="none" /><path d="M 82.85270091963577 112.12312394758628 l -10.383990724679656 7.341471448995325 a33.717093473221254,33.717093473221254 0 0,0 -0.33097195531901746,-0.47678978669191907 l 10.508823587160807 -7.161640400116393" fill="#ff910d" stroke="none" /><path d="M 82.44556493220864 111.52570212397912 l -19.318759357721305 12.684103185437595 a44.11062389336066,44.11062389336066 0 0,0 -0.41126883960591926,-0.6382983721514844 l 19.53423306070427 -12.349683213364662" fill="#e7ff1a" stroke="none" /><path d="M 82.05923443525364 110.91462005526583 l -10.174435964801827 6.189819627912512 a32.909366659396454,32.909366659396454 0 0,0 -0.2902592416180579,-0.48649118463225055 l 10.279476082118116 -6.0137663493941504" fill="#ff860c" stroke="none" /><line stroke="#e1ed5e" stroke-width="0.3" x1="26.63291911575756" x2="22.317208475507996" y1="142.92168965132927" y2="145.44649492493687" /><path d="M 25.769776987707644 143.4266507060508 a86.0,86.0 0 0,1 -11.730757126820373,-40.83630448921669" fill="none" id="id21" stroke="none" /><text fill="#e1ed5e" style="font-size:6.75px; font-family:Arial;" text-anchor="middle"><textPath startOffset="21.46611528233685" xlink:href="#id21">September</textPath></text><path d="M 81.69416730710424 110.29060199501025 l -8.610741685240669 4.840518158949619 a30.878030594053772,30.878030594053772 0 0,0 -0.25646937929908475,-0.4655664199948296 l 8.692787473991268 -4.691581220556968" fill="#ff6a09" stroke="none" /><path d="M 81.35079622478065 109.6543875284942 l -11.23883366244548 5.818160220315259 a33.655527268406345,33.655527268406345 0 0,0 -0.2619062397736923,-0.5167658581249078 l 11.337318572005438 -5.623840150487666" fill="#ff900d" stroke="none" /><path d="M 81.18737489456691 109.33194174019688 l -11.721508546827824 5.814416342917865 a34.08438764414094,34.08438764414094 0 0,0 -0.256195694757579,-0.5278390138588106 l 11.819857498200122 -5.61178837309377" fill="#ff960d" stroke="none" /><path d="M 80.87730276802145 108.67885076344099 l -14.921875078698015 6.772304416458625 a37.38677707706594,37.38677707706594 0 0,0 -0.2609221663718207,-0.5883106037282471 l 15.036238329801115 -6.514445476237682" fill="#ffc212" stroke="none" /><path d="M 80.58989483394504 108.01547362559985 l -16.140826532595582 6.6654131062442605 a38.46293254388375,38.46293254388375 0 0,0 -0.2474400778415779,-0.6141259807897027 l 16.253169224694545 -6.3865877576117525" fill="#ffd013" stroke="none" /><path d="M 80.45479744820244 107.68017299344265 l -11.97622226461669 4.705986471944563 a33.86764191317219,33.86764191317219 0 0,0 -0.20853713505008553,-0.5444246550866912 l 12.055453679260284 -4.499138250024714" fill="#ff930d" stroke="none" /><path d="M 80.20201598880116 107.00284435728193 l -23.70983825778108 8.386525969596203 a46.14935879995454,46.14935879995454 0 0,0 -0.2584565590935934,-0.7511957415595538 l 23.8506856478179 -7.977157524947352" fill="#ceff1d" stroke="none" /><path d="M 79.97269907076064 106.31721596034903 l -8.324035378590123 2.6256523199972053 a29.72832258166062,29.72832258166062 0 0,0 -0.14973622035433956,-0.4893466317977119 l 8.367998371450593 -2.4819787156474455" fill="#ff5a08" stroke="none" /><path d="M 79.86692584326677 105.97154293290107 l -8.26471051427747 2.451343161993043 a29.620587171571238,29.620587171571238 0 0,0 -0.14077869997522943,-0.49006912304413763 l 8.305681851138802 -2.3087165634443094" fill="#ff5808" stroke="none" /><path d="M 79.76711848015287 105.62410040840567 l -10.52354764928931 2.9252130288109233 a31.922542121264065,31.922542121264065 0 0,0 -0.14260548021221428,-0.530688042410431 l 10.572341205843298 -2.7436340532249535" fill="#ff780b" stroke="none" /><path d="M 79.58551787078972 104.9243191809786 l -13.188622918449713 3.1813194376892207 a34.56689234311514,34.56689234311514 0 0,0 -0.13454658179360277,-0.5796231529556393 l 13.241430066173871 -2.9538276273850075" fill="#ff9d0e" stroke="none" /><path d="M 79.50377843672027 104.57218783832718 l -16.399828211525517 3.658386247820858 a37.80292103492107,37.80292103492107 0 0,0 -0.13620925519673152,-0.6363242938831719 l 16.460371505446687 -3.3755481345215226" fill="#ffc812" stroke="none" /><path d="M 79.35854240842038 103.8639653848113 l -11.799600767245524 2.208819252077847 a33.00455999838107,33.00455999838107 0 0,0 -0.09972651194890375,-0.5593192401773551 l 11.835873721533616 -2.0053812611672783" fill="#ff870c" stroke="none" /><path d="M 79.29508885075956 103.50808413554451 l -9.685615650054421 1.641057735530733 a30.823656193695115,30.823656193695115 0 0,0 -0.084131328437778,-0.5238858624916765 l 9.71242873285349 -1.4740926433458428" fill="#ff6909" stroke="none" /><path d="M 79.23777060512086 103.15116336523772 l -10.162203101667219 1.542356628232664 a31.27858141224693,31.27858141224693 0 0,0 -0.07620944289581813,-0.5330086661143923 l 10.187246595579635 -1.367202490137871" fill="#ff6f0a" stroke="none" /><path d="M 79.1416061653843 102.43462659150553 l -12.56905270490687 1.4670808398783215 a33.65438311769739,33.65438311769739 0 0,0 -0.062208842715755566,-0.5759766227237685 l 12.592443849123677 -1.250507895269771" fill="#ff900d" stroke="none" /><path d="M 79.07016306316243 101.71520430193888 l -16.80541540409539 1.3772071365850622 a37.861752174707924,37.861752174707924 0 0,0 -0.0476398946406604,-0.6500085122992572 l 16.826631857400383 -1.0877254877890443" fill="#ffc812" stroke="none" /><path d="M 79.04373962182676 101.35467743843564 l -8.81604455571382 0.569896367021087 a29.83444528408406,29.83444528408406 0 0,0 -0.028717286116076757,-0.5127664347842266 l 8.824548192717428 -0.41805821590142284" fill="#ff5b08" stroke="none" /><path d="M 79.0095281055655 100.63252640178507 l -13.724962277749668 0.41358770054534666 a34.73119238492032,34.73119238492032 0 0,0 -0.01286366844023127,-0.5977241256029775 l 13.730048008874908 -0.1772737591522403" fill="#ff9f0e" stroke="none" /><line stroke="#e1ed5e" stroke-width="0.3" x1="15.007084014347285" x2="10.007500721073583" y1="101.09737516637583" y2="101.16192664675087" /><path d="M 14.007167355692545 101.11028546245083 a86.0,86.0 0 0,1 10.666146001902534,-42.60595125391555" fill="none" id="id22" stroke="none" /><text fill="#e1ed5e" style="font-size:6.75px; font-family:Arial;" text-anchor="middle"><textPath startOffset="22.20632615414155" xlink:href="#id22">October</textPath></text><path d="M 79.00175016825051 100.2711162175752 l -8.728771894164502 0.11270042212967912 a29.72949942238983,29.72949942238983 0 0,0 -0.0022023934682443074,-0.5117586789972967 l 8.729418584922248 0.03756773507129294" fill="#ff5a08" stroke="none" /><path d="M 79.01574976396665 99.18683210126434 l -24.284961404077457 -0.9410748925363097 a45.30318852230904,45.30318852230904 0 0,0 0.03690352814925137,-0.7789751528557033 l 24.265164267694708 1.358961152015022" fill="#d8ff1c" stroke="none" /><path d="M 79.03285615573316 98.82574320788736 l -7.01608502435009 -0.39293313171672867 a28.027079444186633,28.027079444186633 0 0,0 0.03112261564337106,-0.48145308880719356 l 7.008281817702306 0.5136452847769339" fill="#ff4106" stroke="none" /><path d="M 79.08570108090925 98.10471618934814 l -9.175495117457782 -0.8314965477976872 a30.21309378870589,30.21309378870589 0 0,0 0.05139516915071324,-0.5175423394723572 l 9.15982282262484 0.9893144179744747" fill="#ff6108" stroke="none" /><path d="M 79.12142395522702 97.74499172005258 l -16.259027854062786 -1.7560700670478135 a37.353585809832985,37.353585809832985 0 0,0 0.07454645692096433,-0.6386685181447678 l 16.226391044138232 2.035682323517443" fill="#ffc212" stroke="none" /><path d="M 79.21141760316559 97.0276538004421 l -8.644225591077472 -1.2359491663882187 a29.73213641735712,29.73213641735712 0 0,0 0.07679967505239632,-0.5060139021925161 l 8.621670022585773 1.384562180972827" fill="#ff5a08" stroke="none" /><path d="M 79.26566170972629 96.67025291283419 l -29.057551350794416 -4.666379781015979 a50.42985543227709,50.42985543227709 0 0,0 0.14501738539807058,-0.8559008175829428 l 28.972922103876122 5.165866386914749" fill="#9dff22" stroke="none" /><path d="M 79.3925641242962 95.95851677861259 l -6.428136065476928 -1.260671352327235 a27.550589708939476,27.550589708939476 0 0,0 0.09527348679144236,-0.46458735728521466 l 6.405483282770491 1.3711343657758521" fill="#ff3b05" stroke="none" /><path d="M 79.46518482838121 95.60439243477599 l -10.76572549760565 -2.30447189550574 a32.009606541878426,32.009606541878426 0 0,0 0.11996836689057759,-0.5377946653376736 l 10.724462743713035 2.4894447303933727" fill="#ff7a0b" stroke="none" /><path d="M 79.62865764111835 94.90015583598534 l -8.496733854752634 -2.127106687373192 a29.7589422339668,29.7589422339668 0 0,0 0.12867719592875312,-0.4958457266452316 l 8.458860326953573 2.273048839567288" fill="#ff5a08" stroke="none" /><path d="M 79.71946130924805 94.55025226153421 l -5.930256521537373 -1.5935672399820262 a27.140635061586096,27.140635061586096 0 0,0 0.12512250139009562,-0.4501322099991414 l 5.901947249580917 1.6954107534001102" fill="#ff3505" stroke="none" /><path d="M 79.91906864156998 93.8553929516997 l -26.317068136078166 -8.052815851674126 a48.52155370650347,48.52155370650347 0 0,0 0.2512596611728017,-0.7965617888118506 l 26.174552991137162 8.50462780691239" fill="#b2ff20" stroke="none" /><path d="M 80.14247586403 93.16781622104843 l -8.85576153897606 -3.0469151099888574 a30.3652658329962,30.3652658329962 0 0,0 0.17430663078851638,-0.4927883176224778 l 8.802001827377733 3.1989010540379463" fill="#ff6309" stroke="none" /><path d="M 80.2630227832202 92.82701384747504 l -6.155157155796217 -2.236961443498318 a27.549042381314038,27.549042381314038 0 0,0 0.16581297848439472,-0.4442963453118648 l 6.115739588810195 2.342580925839524" fill="#ff3b05" stroke="none" /><path d="M 80.38941819471856 92.48833698450439 l -5.707276040044311 -2.1861225115554332 a27.111639013619286,27.111639013619286 0 0,0 0.17068255004188834,-0.4343684726209072 l 5.668799940120732 2.284039989072104" fill="#ff3405" stroke="none" /><path d="M 80.65960295795068 91.81776055985345 l -11.203256847147271 -4.739702594187643 a33.164610337553,33.164610337553 0 0,0 0.226955362378754,-0.5238442675437354 l 11.120010774925838 4.931846006317977" fill="#ff8a0c" stroke="none" /><path d="M 80.95270993114464 91.15688171328213 l -7.4543522507576565 -3.4608450055631974 a29.218565302466573,29.218565302466573 0 0,0 0.21571900656414986,-0.45435924302965935 l 7.393675050351756 3.588646664233389" fill="#ff5207" stroke="none" /><path d="M 81.26839172434947 90.50648371742162 l -13.155664225002015 -6.667527458949763 a35.748810922133586,35.748810922133586 0 0,0 0.2829102452857756,-0.5464925453696443 l 13.038944546556126 6.8929927265797435" fill="#ffac10" stroke="none" /><path d="M 81.43458229118936 90.18545643968196 l -3.894126501696304 -2.0586164437415038 a25.404784089334733,25.404784089334733 0 0,0 0.20770455567820023,-0.38484499681666706 l 3.858113846799632 2.1253424238906433" fill="#ff1b02" stroke="none" /><line stroke="#e1ed5e" stroke-width="0.3" x1="26.266209847984243" x2="21.928928074336255" y1="57.711370442889674" y2="55.22380399835377" /><path d="M 25.398753493254645 57.213857153982495 a86.0,86.0 0 0,1 29.58750427330803,-30.492523968695096" fill="none" id="id23" stroke="none" /><text fill="#e1ed5e" style="font-size:6.75px; font-family:Arial;" text-anchor="middle"><textPath startOffset="21.46611528233685" xlink:href="#id23">November</textPath></text><path d="M 81.78341655067845 89.55222093294921 l -27.732920611362864 -15.905695392204272 a52.97039304646947,52.97039304646947 0 0,0 0.46043965667320813,-0.7870406269621298 l 27.45502128021933 16.380715431520294" fill="#80ff25" stroke="none" /><path d="M 82.15384107792192 88.93136811851018 l -4.6378959871064795 -2.876538509494725 a26.457522604976045,26.457522604976045 0 0,0 0.24337443995142866,-0.3849599175049879 l 4.587693950909088 2.9559460747139283" fill="#ff2b04" stroke="none" /><path d="M 82.34701348167596 88.62581576622439 l -6.9165181734281695 -4.4564556755973745 a29.227892854912866,29.227892854912866 0 0,0 0.27613868018156734,-0.42057815470242305 l 6.838782857888682 4.574851894277464" fill="#ff5307" stroke="none" /><path d="M 82.7489923806493 88.02491185347247 l -6.942801470916907 -4.819466864347727 a29.451612456869498,29.451612456869498 0 0,0 0.2926752307702648,-0.4139683580841015 l 6.858813620342763 4.938261722763614" fill="#ff5607" stroke="none" /><path d="M 83.6137871275137 86.86637796730984 l -5.4322871926383804 -4.354002191740761 a27.961830163756247,27.961830163756247 0 0,0 0.30425335032010065,-0.37297863217135024 l 5.356535350241887 4.446864993520194" fill="#ff4006" stroke="none" /><path d="M 83.84228863543731 86.58626213691792 l -5.2427971639023765 -4.35244232547287 a27.814005892159948,27.814005892159948 0 0,0 0.3089863033832146,-0.36574232390871464 l 5.167100247032038 4.442043599010701" fill="#ff3e05" stroke="none" /><path d="M 84.31358615837235 86.03803664274999 l -4.472848444132886 -3.981135950512204 a26.98797266699195,26.98797266699195 0 0,0 0.3118477711679026,-0.34435009777932857 l 4.403657032348939 4.057538835561089" fill="#ff3204" stroke="none" /><path d="M 85.05521093208273 85.24692304244772 l -33.96478911543646 -33.52908799112949 a68.7263725960079,68.7263725960079 0 0,0 0.838344583021879,-0.834744464957352 l 33.38260873224726 34.10876830673695" fill="#3aff8f" stroke="none" /><path d="M 86.10567301691215 84.25364557470407 l -4.12666904911706 -4.676728388671849 a27.237081518013845,27.237081518013845 0 0,0 0.35421980330156827,-0.30717592288321455 l 4.045555447168718 4.747069304974744" fill="#ff3605" stroke="none" /><path d="M 87.80319425747018 82.90503203632743 l -6.333126123008635 -8.876470648804032 a31.904137639860103,31.904137639860103 0 0,0 0.4498010320761634,-0.31511436785963814 l 6.179393951348811 8.984169859427613" fill="#ff780b" stroke="none" /><path d="M 89.00827224532344 82.1063720568725 l -2.3042095300001817 -3.751063431796686 a25.402256061101625,25.402256061101625 0 0,0 0.37454771810331927,-0.22566080931423085 l 2.2392997456792134 3.7901708505695364" fill="#ff1b02" stroke="none" /><line stroke="#e1ed5e" stroke-width="0.3" x1="56.762969772571076" x2="54.21961505331055" y1="26.818313649435495" y2="22.513508569990535" /><path d="M 56.25429882871897 25.957352633546506 a86.0,86.0 0 0,1 42.265352541879196,-11.944610805530505" fill="none" id="id24" stroke="none" /><text fill="#e1ed5e" style="font-size:6.75px; font-family:Arial;" text-anchor="middle"><textPath startOffset="22.20632615414155" xlink:href="#id24">December</textPath></text><path d="M 89.63071344664047 81.73862282372117 l -3.3163532278670256 -5.840438185617353 a27.71631721496248,27.71631721496248 0 0,0 0.4169008070402104,-0.23200484774895197 l 3.2153283317547694 5.89665843092649" fill="#ff3d05" stroke="none" /><path d="M 90.58718382345135 81.22770947309562 l -5.86395172427779 -11.694672809837783 a34.08248072629269,34.08248072629269 0 0,0 0.5267021089164449,-0.258450437403154 l 5.66177834835092 11.793878407375768" fill="#ff960d" stroke="none" /><path d="M 91.23893434514133 80.91482961587045 l -3.8550770353519366 -8.397928398451613 a30.240498922353595,30.240498922353595 0 0,0 0.47494558528945025,-0.2130942397878642 l 3.709949331595712 8.463042968756007" fill="#ff6108" stroke="none" /><path d="M 91.90106846888425 80.62456947434976 l -3.5749134093081287 -8.552422764799278 a30.26951676366724,30.26951676366724 0 0,0 0.4824616914554451,-0.19680823783630888 l 3.427167848264303 8.612691888819164" fill="#ff6109" stroke="none" /><path d="M 92.23578459929587 80.48803036053334 l -2.4246654340719136 -6.093339235692107 a27.558032136884357,27.558032136884357 0 0,0 0.442262893790951,-0.17159113182458507 l 2.3194193752812864 6.134173071407243" fill="#ff3b05" stroke="none" /><path d="M 92.91201910852362 80.23233633223022 l -6.623576612868287 -18.472486984034973 a40.624080679661844,40.624080679661844 0 0,0 0.6602728478263615,-0.23035623180940226 l 6.30462176097864 18.583764069016585" fill="#ffec16" stroke="none" /><path d="M 93.59665428221793 80.00007090966166 l -1.9982876871726238 -6.2413640941741235 a27.55345553404856,27.55345553404856 0 0,0 0.4529455182246706,-0.1407323773382089 l 1.8905567962372245 6.2748366063948575" fill="#ff3b05" stroke="none" /><path d="M 94.28887869178378 79.79150937346287 l -2.2782031738986563 -8.061297423125062 a29.377035623992814,29.377035623992814 0 0,0 0.48780163478267585,-0.13333461359961374 l 2.1391036498922578 8.099318577550973" fill="#ff5507" stroke="none" /><path d="M 94.98787191387505 79.60689891045804 l -1.8229179118190812 -7.416999050079046 a28.637729022563207,28.637729022563207 0 0,0 0.4797178442534914,-0.11353371467287648 l 1.6949763806030558 7.447278676892794" fill="#ff4a06" stroke="none" /><path d="M 95.33964822691252 79.52364482259891 l -1.7796643817459763 -7.819375392999215 a29.019341422354888,29.019341422354888 0 0,0 0.4880186458846543,-0.10666197390253553 l 1.644803011707801 7.848850864997619" fill="#ff5007" stroke="none" /><path d="M 96.04723909329186 79.375362276772 l -4.150857668254625 -21.658263089767946 a43.052437041010066,43.052437041010066 0 0,0 0.7290312695330331,-0.13322580465656067 l 3.777431277618699 21.726504375775242" fill="#f4ff19" stroke="none" /><path d="M 96.75951476605007 79.25152402106235 l -1.0106489902652427 -6.4710760221844135 a27.549521834944457,27.549521834944457 0 0,0 0.46916969440639944,-0.06914341711568556 l 0.8991103154301945 6.487513923461068" fill="#ff3b05" stroke="none" /><path d="M 97.11714578562143 79.19881850522333 l -1.2000069690733322 -8.658628186674362 a29.741387693089486,29.741387693089486 0 0,0 0.5077071162719163,-0.06591495498389965 l 1.0507851242935582 8.6780014648224" fill="#ff5a08" stroke="none" /><path d="M 97.47563105711357 79.15227682838746 l -0.8074837283796521 -6.668675465319233 a27.717385088957503,27.717385088957503 0 0,0 0.4741432197903234,-0.05327551530495334 l 0.6925738050796106 6.681586934094785" fill="#ff3d05" stroke="none" /><path d="M 98.19473922651362 79.07773832637324 l -0.7535761381275067 -8.733650774705513 a29.7661013484028,29.7661013484028 0 0,0 0.5108569023999725,-0.039652327661582394 l 0.6031290463652 8.745328364555556" fill="#ff5a08" stroke="none" /><path d="M 98.55514903715128 79.0497635885617 l -0.4409119048864907 -6.393191326652265 a27.40837722415374,27.40837722415374 0 0,0 0.4709515562949703,-0.028409083988623785 l 0.33079829975189734 6.399833680021195" fill="#ff3805" stroke="none" /><path d="M 99.27714615592234 79.0124445844662 l -0.24362415067126061 -7.073456694830968 a28.07765090552221,28.07765090552221 0 0,0 0.48316738969295775,-0.01247878819311918 l 0.12183012578342386 7.076602275166447" fill="#ff4206" stroke="none" /></svg>