<?xml version="1.0" encoding="utf-8" ?>
<svg baseProfile="full" height="200mm" version="1.1" viewBox="0,0,200,200" width="200mm" xmlns="http://www.w3.org/2000/svg" xmlns:ev="http://www.w3.org/2001/xml-events" xmlns:xlink="http://www.w3.org/1999/xlink"><defs /><rect fill="#1a1a1a" height="200" width="200" x="0" y="0" /><rect fill="#1a1a1a" height="200" width="180" x="10" y="0" /><text alignment-baseline="middle" fill="#e1ed5e" style="dominant-baseline: central; font-size:9.0px; font-family:Arial;" text-anchor="middle" x="100.0" y="100.0">2026</text><line stroke="#e1ed5e" stroke-width="0.3" x1="100.0" x2="100.0" y1="15.0" y2="10.0" /><path d="M 100.0 14.0 a86.0,86.0 0 0,1 42.46469731375804,11.215312516191453" fill="none" id="id25" stroke="none" /><text fill="#e1ed5e" style="font-size:6.75px; font-family:Arial;" text-anchor="middle"><textPath startOffset="22.20632615414155" xlink:href="#id25">January</textPath></text><path d="M 100.36148047927253 79.00311137660856 l 0.3275423231744481 -19.025563131324073 a40.02838239150844,40.02838239150844 0 0,0 0.6888186301202813,0.01779015300309807 l -0.6549875884895973 19.017106186178616" fill="#ffba11" stroke="none" /><path d="M 101.08401301168833 79.027996857942 l 2.0873084951678944 -40.38239379703262 a61.4363028173029,61.4363028173029 0 0,0 1.055645220736417,0.06367940255687132 l -2.7821157647439234 40.340481125095444" fill="#39ff2e" stroke="none" /><path d="M 101.80526077348638 79.07773832637324 l 0.8233790131459295 -9.54263861632715 a30.578095048656976,30.578095048656976 0 0,0 0.5240137175932316,0.04976141657385606 l -0.9875178578294053 9.527051655238115" fill="#ff2d04" stroke="none" /><path d="M 102.16513564639614 79.11191278185805 l 2.520715453277765 -24.318533726893715 a45.44882592319027,45.44882592319027 0 0,0 0.7774634075238236,0.08735707258429598 l -2.938945564311314 24.27154070083882" fill="#faff18" stroke="none" /><path d="M 102.88285421437855 79.19881850522331 l 2.3999813107673407 -17.31702095109411 a38.48253771374925,38.48253771374925 0 0,0 0.6553594856314691,0.09658295242848194 l -2.6977097768274656 17.27314351450466" fill="#ffa40f" stroke="none" /><path d="M 103.59715602781102 79.31037775812273 l 2.887852264282981 -16.609947407458858 a37.8591234522698,37.8591234522698 0 0,0 0.6410899528759394,0.11715509114422472 l -3.1733373382618213 16.557776834963892" fill="#ff9b0e" stroke="none" /><path d="M 103.95276090670814 79.375362276772 l 2.256616473830444 -11.77452882971902 a32.9888217549452,32.9888217549452 0 0,0 0.5567784067644873,0.11168451049765378 l -2.4589612900620565 11.733940363144157" fill="#ff5207" stroke="none" /><path d="M 104.66035177308747 79.52364482259891 l 4.436309173331736 -19.491971150006616 a40.99044217605197,40.99044217605197 0 0,0 0.6866412675460684,0.16250580353855593 l -4.771174127840328 19.41271943432719" fill="#ffc812" stroke="none" /><path d="M 105.36241919743992 79.69619591428918 l 1.961733918062664 -7.427741038905312 a28.682430403610283,28.682430403610283 0 0,0 0.47626781066347224,0.13018198377510395 l -2.0892996179498473 7.392872514303914" fill="#ff0f01" stroke="none" /><path d="M 105.71112130821622 79.79150937346287 l 7.134442653834557 -25.244835421052123 a47.23360416368406,47.23360416368406 0 0,0 0.7805010808084683,0.2278496682368419 l -7.567933952366452 25.11828742389658" fill="#e2ff1b" stroke="none" /><path d="M 106.0581310904928 79.89281104454417 l 4.832435642537144 -16.03905480554236 a37.751230202419606,37.751230202419606 0 0,0 0.620584612573341,0.1928186599776401 l -5.107805627821203 15.953496010682198" fill="#ff990e" stroke="none" /><path d="M 106.74666289553966 80.11325718540242 l 6.49186621562522 -19.13569357411728 a41.20690712415162,41.20690712415162 0 0,0 0.6697456646841068,0.23366111160743144 l -6.8202938843725995 19.02111160933764" fill="#ffcb12" stroke="none" /><path d="M 107.4271985657038 80.35727306442388 l 7.066620435638281 -18.68910523216249 a40.980484948074306,40.980484948074306 0 0,0 0.6576720635227994,0.255166543098302 l -7.3872756641607475 18.56469598517364" fill="#ffc712" stroke="none" /><path d="M 107.76421540070413 80.48803036053334 l 4.453196841702617 -11.191168339558196 a33.04463411296831,33.04463411296831 0 0,0 0.526693907674301,0.2148516694367885 l -4.645174618965306 11.112855783937828" fill="#ff5307" stroke="none" /><path d="M 108.43124777332544 80.76684994638697 l 9.829249002207511 -22.42223524397974 a45.4820499403903,45.4820499403903 0 0,0 0.714323493291792,0.3204961294099798 l -10.213754613966083 22.24971878405323" fill="#f9ff18" stroke="none" /><path d="M 109.08828744355905 81.06846463323043 l 8.986952533659155 -18.720447695679454 a41.765848833334815,41.765848833334815 0 0,0 0.6454389525769515,0.3167140909189151 l -9.307862753246537 18.562978444625706" fill="#ffd213" stroke="none" /><path d="M 109.41281617654863 81.2277094730956 l 4.648873470120073 -9.271402072138553 a31.371640223438206,31.371640223438206 0 0,0 0.4806426775728567,0.24620384771569676 l -4.807776635281685 9.190005699110356" fill="#ff3905" stroke="none" /><path d="M 110.05341064243156 81.56283822128135 l 5.090339903674925 -9.335281692027099 a31.632922674619692,31.632922674619692 0 0,0 0.4758132507218748,0.2647895588746473 l -5.250277243468835 9.246276735592271" fill="#ff3d05" stroke="none" /><path d="M 110.36928655335952 81.73862282372117 l 8.442543391386064 -14.868184846068425 a38.09793728881631,38.09793728881631 0 0,0 0.567483774774893,0.3287232308927678 l -8.697223898626284 14.720657457785608" fill="#ff9e0e" stroke="none" /><line stroke="#e1ed5e" stroke-width="0.3" x1="143.23703022742887" x2="145.7803849466894" y1="26.81831364943548" y2="22.513508569990506" /><path d="M 143.74570117128098 25.957352633546492 a86.0,86.0 0 0,1 28.547481713284135,27.462654790039103" fill="none" id="id26" stroke="none" /><text fill="#e1ed5e" style="font-size:6.75px; font-family:Arial;" text-anchor="middle"><textPath startOffset="19.985693538727396" xlink:href="#id26">February</textPath></text><path d="M 110.68208982089419 81.91981866633111 l 10.160609478792573 -17.197539518703152 a40.97481790850385,40.97481790850385 0 0,0 0.6041599025856036,0.36399958131653676 l -10.455131447595814 17.020093327928002" fill="#ffc712" stroke="none" /><path d="M 111.2981086023043 82.29822771554956 l 10.744859118190481 -16.834946098846686 a40.971665118883664,40.971665118883664 0 0,0 0.591226930454561,0.3845504416146433 l -11.033053074429322 16.647496733072515" fill="#ffc712" stroke="none" /><path d="M 111.90073688211348 82.69761687909136 l 9.338120064014936 -13.576615681627988 a37.47801504115667,37.47801504115667 0 0,0 0.5283844382810496,0.37016706584081416 l -9.570435641879637 13.41386377302324" fill="#ff950d" stroke="none" /><path d="M 112.19680574252982 82.90503203632743 l 7.584771758628955 -10.630769478717347 a34.05917387663261,34.05917387663261 0 0,0 0.4743221391115188,0.34461520603899126 l -7.766639214094263 10.49863503786168" fill="#ff6309" stroke="none" /><path d="M 112.77801427241765 83.33499621200491 l 18.596516091309546 -24.253456327259915 a51.5624042665599,51.5624042665599 0 0,0 0.6996955520799077,0.5461234767853123 l -19.011244198548884 23.92975446125138" fill="#abff21" stroke="none" /><path d="M 113.06298171725822 83.55741782278167 l 7.464719980115315 -9.395961378466298 a33.00025560590953,33.00025560590953 0 0,0 0.4417266522535366,0.3571788994261172 l -7.625350030933343 9.26607638177605" fill="#ff5307" stroke="none" /><path d="M 113.34407831869373 83.78471172551755 l 13.048587578312416 -15.85621757485902 a41.53497683393281,41.53497683393281 0 0,0 0.5481478943858162,0.4590580976585871 l -13.31959300965735 15.629258319806613" fill="#ffcf13" stroke="none" /><path d="M 113.89432698308785 84.25364557470407 l 13.423587499648388 -15.212868294068366 a41.28852047571205,41.28852047571205 0 0,0 0.528864683161168,0.47481993434921993 l -13.683463170405545 14.97954935094985" fill="#ffcc13" stroke="none" /><path d="M 114.16331599549186 84.49514656593476 l 8.13525628323309 -8.905820950421223 a33.062173999526166,33.062173999526166 0 0,0 0.41688585807988227,0.3874499712231262 l -8.28735002510782 8.764466393123456" fill="#ff5307" stroke="none" /><path d="M 114.68862486808459 84.99185889309783 l 18.386439156661293 -18.78639258574978 a47.286682773745376,47.286682773745376 0 0,0 0.5768169169275303,0.574339881774431 l -18.707091873756145 18.46711685332523" fill="#e1ff1b" stroke="none" /><path d="M 114.94478906791727 85.2469230424477 l 11.000324983396153 -10.859212552321791 a36.45734928753416,36.45734928753416 0 0,0 0.4370294126823973,0.45039722573913765 l -11.18561865978166 10.66825113103254" fill="#ff860c" stroke="none" /><path d="M 115.4437574822437 85.77008943001954 l 18.12132752781108 -16.6970292318145 a45.64088668328053,45.64088668328053 0 0,0 0.5273834000771863,0.5823499225395893 l -18.406054568504302 16.382626522005364" fill="#f7ff18" stroke="none" /><path d="M 115.68641384162765 86.03803664274999 l 9.285558226289242 -8.264771350289047 a33.430930658899456,33.430930658899456 0 0,0 0.3788968335706114,0.43314457971164183 l -9.4264469234377 8.103711214374458" fill="#ff5908" stroke="none" /><path d="M 116.15771136456269 86.58626213691792 l 14.338768472943126 -11.903695841313244 a39.6359399012544,39.6359399012544 0 0,0 0.4312796207335936,0.5286978199430136 l -14.541546585753128 11.65511385176213" fill="#ffb410" stroke="none" /><path d="M 116.60985879189232 87.15038557335679 l 12.64601455280176 -9.783130192325292 a36.98847461234688,36.98847461234688 0 0,0 0.3852509205776104,0.5069450528748246 l -12.812541413603483 9.564000363569434" fill="#ff8e0d" stroke="none" /><path d="M 116.82858285166822 87.43820079747576 l 14.574295440679043 -10.879072495752437 a39.18692678711923,39.18692678711923 0 0,0 0.3988433978618408,0.5440219464543251 l -14.75940145105451 10.626588105626618" fill="#ffae10" stroke="none" /><path d="M 117.2510076193507 88.02491185347247 l 10.912379546231278 -7.575018795302237 a34.28386002298236,34.28386002298236 0 0,0 0.33235024395795165,0.4876829731421895 l -11.041154255857963 7.386057798889642" fill="#ff6609" stroke="none" /><path d="M 117.45458315368197 88.32363383020206 l 26.607607462685834 -17.799346160325314 a53.01220858709162,53.01220858709162 0 0,0 0.5008476452755468,0.7628253249365106 l -26.910051743319308 17.338702771411132" fill="#99ff23" stroke="none" /><line stroke="#e1ed5e" stroke-width="0.3" x1="172.23445277983987" x2="176.4835382374775" y1="55.19839476539836" y2="52.563006222186495" /><path d="M 173.08426987136738 54.67131705675599 a86.0,86.0 0 0,1 12.851231095245387,41.99856678651699" fill="none" id="id27" stroke="none" /><text fill="#e1ed5e" style="font-size:6.75px; font-family:Arial;" text-anchor="middle"><textPath startOffset="22.20632615414155" xlink:href="#id27">March</textPath></text><path d="M 117.84615892207809 88.93136811851018 l 10.78877283988209 -6.691465403792612 a33.6954058084305,33.6954058084305 0 0,0 0.30146830579708084,0.4955346289766016 l -10.902356943965396 6.504763001608929" fill="#ff5d08" stroke="none" /><path d="M 118.03404312379186 89.2402003453031 l 10.48517885235454 -6.2558586014558815 a33.20961680018142,33.20961680018142 0 0,0 0.2886711553057526,0.4934325785473599 l -10.591309682130621 6.074446610554626" fill="#ff5607" stroke="none" /><path d="M 118.21658344932153 89.55222093294921 l 15.803610431157336 -9.063863742935876 a39.21833495713295,39.21833495713295 0 0,0 0.33082039804237906,0.5884925741853958 l -15.957288470492148 8.790487658815685" fill="#ffae10" stroke="none" /><path d="M 118.56541770881063 90.18545643968196 l 14.541621961122187 -7.687377920259804 a37.44854244451736,37.44854244451736 0 0,0 0.29636164267532294,0.5724763636324447 l -14.671793036957627 7.435928834367015" fill="#ff950d" stroke="none" /><path d="M 118.73160827565052 90.50648371742162 l 19.602325561871552 -9.934811477983859 a42.97616086892073,42.97616086892073 0 0,0 0.32874713929979404,0.6627341724060294 l -19.770432714124755 9.59591771707888" fill="#ffe315" stroke="none" /><path d="M 119.04729006885535 91.15688171328212 l 27.580039281556186 -12.804632513993303 a51.40751848787725,51.40751848787725 0 0,0 0.3657221025120364,0.8058201745835215 l -27.79636370103157 12.327990330567719" fill="#adff20" stroke="none" /><path d="M 119.196687751892 91.48605970444005 l 16.283600764582197 -7.2219544589260245 a38.8132613540335,38.8132613540335 0 0,0 0.26561077323231747,0.6130662853579364 l -16.405502247657196 6.940589028981485" fill="#ffa90f" stroke="none" /><path d="M 119.34039704204932 91.81776055985345 l 14.252718838004114 -6.029822342948129 a36.47574721177345,36.47574721177345 0 0,0 0.23966009856409473,0.580355938341454 l -14.354400623454406 5.783591834153372" fill="#ff870c" stroke="none" /><path d="M 119.61058180528143 92.48833698450437 l 9.328785176944127 -3.5733101286308044 a30.989733637737693,30.989733637737693 0 0,0 0.18652191120794673,0.49978598917740713 l -9.388911676653699 3.412201002424064" fill="#ff3304" stroke="none" /><path d="M 119.7369772167798 92.82701384747503 l 6.338704868812694 -2.30366797050771 a27.74433581105307,27.74433581105307 0 0,0 0.15926162890478673,0.45025407131542683 l -6.377419578527291 2.194216272765669" fill="#ff0000" stroke="none" /><path d="M 119.97218684219823 93.5106431181261 l 55.755408873466216 -18.116030514508136 a79.62470622740881,79.62470622740881 0 0,0 0.412321436133251,1.30717162953545 l -56.05898579336767 17.153608718546266" fill="#47ffff" stroke="none" /><path d="M 120.18372546131832 94.20196356495316 l 7.686970925199585 -2.208181912941154 a28.99784904618137,28.99784904618137 0 0,0 0.13368454346618694,0.4809344308546904 l -7.723842239232136 2.075536178667512" fill="#ff1402" stroke="none" /><path d="M 120.37134235888165 94.90015583598534 l 11.923182140331882 -2.9848975970081035 a33.291130379918435,33.291130379918435 0 0,0 0.13438075706941183,0.5570949938216926 l -11.972795697662113 2.7792173715270048" fill="#ff5708" stroke="none" /><path d="M 120.67395015179393 96.31383870115 l 9.924505016926595 -1.7695373179790201 a31.081024856170206,31.081024856170206 0 0,0 0.08937739205275222,0.5275104272594168 l -9.95349427049957 1.5984411024037655" fill="#ff3505" stroke="none" /><path d="M 120.78858239683441 97.02765380044208 l 11.150124959343845 -1.5942420177985879 a32.26352050738565,32.26352050738565 0 0,0 0.07387424526069776,0.5504489342008015 l -11.17591520366238 1.402074741533122" fill="#ff4706" stroke="none" /><path d="M 120.83666639777658 97.38593545837742 l 11.370758774765662 -1.4265188469701875 a32.459891410247806,32.459891410247806 0 0,0 0.06478012335930104,0.5549965363878477 l -11.393629251128552 1.2305785722574871" fill="#ff4a06" stroke="none" /><path d="M 120.94382443527127 98.46500227214037 l 62.831473305813795 -4.6049931835789 a84.0,84.0 0 0,0 0.09327763598233796,1.442963742987859 l -62.90143153280055 3.5227703763380056" fill="#4dd2ff" stroke="none" /><line stroke="#e1ed5e" stroke-width="0.3" x1="184.98032266829074" x2="189.97916517819016" y1="98.17113171792111" y2="98.06355123074" /><path d="M 185.9800911702706 98.14961562048488 a86.0,86.0 0 0,1 -9.607161424134198,41.387399972396054" fill="none" id="id28" stroke="none" /><text fill="#e1ed5e" style="font-size:6.75px; font-family:Arial;" text-anchor="middle"><textPath startOffset="21.466115282336823" xlink:href="#id28">April</textPath></text><path d="M 120.99513854157772 99.54816195383933 l 9.953905462093982 -0.21421879101935015 a30.956210305067394,30.956210305067394 0 0,0 0.006879638721726192,0.5328356006255679 l -9.956118107933422 0.042846932333319564" fill="#ff3304" stroke="none" /><path d="M 120.99980553446 99.90962569577887 l 12.766724209672773 -0.0549425953368431 a33.76684243400173,33.76684243400173 0 0,0 -0.0025014842047381505,0.581256832899107 l -12.765778428178532 -0.1648237157659486" fill="#ff5e08" stroke="none" /><path d="M 120.9904718944345 100.63252640178507 l 28.911805347198133 0.871227683557815 a49.92492914616857,49.92492914616857 0 0,0 -0.0332782155048172,0.8587628737528425 l -28.892524998842113 -1.3687678043246638" fill="#c0ff1e" stroke="none" /><path d="M 120.95626037817324 101.35467743843564 l 21.074715005339833 1.3623347116325337 a42.1187018640544,42.1187018640544 0 0,0 -0.052996240373290135,0.7230915941845318 l -21.048142206302206 -1.724899442313836" fill="#ffd714" stroke="none" /><path d="M 120.92983693683757 101.71520430193887 l 15.932688912138238 1.3056870268996175 a36.986100042949396,36.986100042949396 0 0,0 -0.05746125933512882,0.6340802085936331 l -15.907853056526033 -1.5797486240418213" fill="#ff8e0d" stroke="none" /><path d="M 120.8583938346157 102.4346265915055 l 19.88430305563423 2.32092908766833 a41.019296187386054,41.019296187386054 0 0,0 -0.08789554381851854,0.7006139654305776 l -19.841406002568863 -2.6628608073863025" fill="#ffc812" stroke="none" /><path d="M 120.81339534386255 102.79330883721812 l 20.040046707604482 2.689519832866777 a41.2197178262792,41.2197178262792 0 0,0 -0.10043076092426141,0.7024125079916119 l -19.990781895663616 -3.0340778128387984" fill="#ffcb12" stroke="none" /><path d="M 120.70491114924044 103.5080841355445 l 19.711526551300782 3.3397725343303013 a40.992457566885136,40.992457566885136 0 0,0 -0.12386272713708124,0.694687952829458 l -19.651117381824513 -3.678579237892978" fill="#ffc812" stroke="none" /><path d="M 120.64145759157962 103.86396538481128 l 9.833217830951519 1.840723367113634 a31.00402096285194,31.00402096285194 0 0,0 -0.10271199125759638,0.5237262305842573 l -9.800075906718257 -2.009713324765836" fill="#ff3404" stroke="none" /><path d="M 120.5718875245553 104.21870165774334 l 12.744956249593766 2.6136234700801872 a34.010185911331675,34.010185911331675 0 0,0 -0.12254349572101494,0.5724824151782215 l -12.69807871514831 -2.832619704674578" fill="#ff6209" stroke="none" /><path d="M 120.41448212921028 104.9243191809786 l 15.737346047161306 3.796114665424141 a37.188716661957855,37.188716661957855 0 0,0 -0.15546421708603103,0.6210022677088963 l -15.669670515780215 -4.066444772530433" fill="#ff910d" stroke="none" /><path d="M 120.32669344350535 105.2749913415812 l 10.610736857895029 2.7535981299052117 a31.96220960064665,31.96220960064665 0 0,0 -0.1427826841430466,0.5313474841585374 l -10.561766097410205 -2.935836547239297" fill="#ff4306" stroke="none" /><path d="M 120.13307415673323 105.97154293290107 l 56.193798975881094 16.667284913122018 a79.613491874456,79.613491874456 0 0,0 -0.4009988565532377,1.3104874648545433 l -55.89857334682173 -17.63209935052862" fill="#47ffff" stroke="none" /><path d="M 119.54520255179757 107.68017299344265 l 18.60309427664726 7.30997705853059 a40.987768291184224,40.987768291184224 0 0,0 -0.2636828735029873,0.6544392675593501 l -18.47450878888688 -7.629115693932754" fill="#ffc812" stroke="none" /><path d="M 119.26925614724726 108.34839909993367 l 14.12551502628778 6.119874894517235 a36.394253586401135,36.394253586401135 0 0,0 -0.2539953489351396,0.5726924590349153 l -14.018078592621368 -6.3621156900448375" fill="#ff850c" stroke="none" /><path d="M 119.12269723197855 108.67885076344098 l 14.566974170465187 6.611232367835082 a36.99703503479661,36.99703503479661 0 0,0 -0.26818513495057605,0.5776469218138981 l -14.451014418674779 -6.8609993569278105" fill="#ff8e0d" stroke="none" /><path d="M 118.81262510543309 109.33194174019688 l 12.921489883179872 6.409663197485058 a35.423892786148755,35.423892786148755 0 0,0 -0.27566760383147704,0.543918334951856 l -12.809243609562126 -6.631135744139607" fill="#ff770b" stroke="none" /><path d="M 118.64920377521936 109.65438752849418 l 11.728941472213352 6.071881010933019 a34.207414851875264,34.207414851875264 0 0,0 -0.2752027113968984,0.5205798171132809 l -11.62268625259156 -6.272875843132434" fill="#ff6509" stroke="none" /><line stroke="#e1ed5e" stroke-width="0.3" x1="174.80103733775053" x2="179.2010983576182" y1="140.37084112569926" y2="142.7455964860345" /><path d="M 175.68104954172406 140.8457921977663 a86.0,86.0 0 0,1 -30.038265399797805,32.042727171017184" fill="none" id="id29" stroke="none" /><text fill="#e1ed5e" style="font-size:6.75px; font-family:Arial;" text-anchor="middle"><textPath startOffset="22.206326154141568" xlink:href="#id29">May</textPath></text><path d="M 118.48025628344425 109.97397251340804 l 10.601181020252582 5.721559619299602 a33.04662954943678,33.04662954943678 0 0,0 -0.27448151340660026,0.4982636753779974 l -10.501123097394473 -5.903193813075404" fill="#ff5307" stroke="none" /><path d="M 116.93607887273984 112.41649034213515 l 5.462699249099716 4.004914772663826 a27.773509092222106,27.773509092222106 0 0,0 -0.28598611550164055,0.3831251368975086 l -5.392951866902983 -4.09835278907065" fill="#ff0000" stroke="none" /><path d="M 116.71984013943494 112.70617746262583 l 6.65678842902445 5.058800467287088 a29.360878802890152,29.360878802890152 0 0,0 -0.3092583919850391,0.3997581600914301 l -6.568723219821343 -5.172636621491771" fill="#ff1a02" stroke="none" /><path d="M 116.27256486870786 113.27417163493432 l 12.718623061555277 10.375081423321111 a37.413582397589764,37.413582397589764 0 0,0 -0.4113783730436186,0.4955317511874277 l -12.538148688618115 -10.592474431622309" fill="#ff940d" stroke="none" /><path d="M 116.0416608686014 113.55231037782055 l 9.16045658490776 7.7389337586740625 a32.99187477274196,32.99187477274196 0 0,0 -0.3702277339761668,0.4306584960382681 l -9.025886341360815 -7.895469353873859" fill="#ff5207" stroke="none" /><path d="M 115.56566222782051 114.09645910891815 l 8.88568341003298 8.046986437907604 a32.98788389980501,32.98788389980501 0 0,0 -0.3847857454227299,0.4176089305486863 l -8.745851256614529 -8.198746623257627" fill="#ff5207" stroke="none" /><path d="M 115.07121518719521 114.62390073753431 l 10.398681359648078 10.090047956713066 a35.48936305667927,35.48936305667927 0 0,0 -0.4291836409072111,0.43476076232867417 l -10.223457093685331 -10.267549213022406" fill="#ff780b" stroke="none" /><path d="M 114.81725581225074 114.88116024355365 l 11.349744510052151 11.39869412511843 a37.085612459632,37.085612459632 0 0,0 -0.456241416434227,0.44652825207006347 l -11.15185314124213 -11.592372480111065" fill="#ff900d" stroke="none" /><path d="M 114.55890576462653 115.13401014063108 l 9.936274587592793 10.328776269305132 a35.33224238915192,35.33224238915192 0 0,0 -0.4419292364880156,0.4178716769315652 l -9.75700951671397 -10.49828258298262" fill="#ff760a" stroke="none" /><path d="M 114.0293411484842 115.62618273729858 l 14.8198525506534 16.506671385730126 a43.18328717434794,43.18328717434794 0 0,0 -0.5573885816779943,0.4918306168716931 l -14.533521616068818 -16.759325144374106" fill="#ffe615" stroke="none" /><path d="M 113.75828350139079 115.86535959552629 l 6.931608975922763 7.9931823593746625 a31.580083516934604,31.580083516934604 0 0,0 -0.4137510108613737,0.35260758759254796 l -6.792992488484342 -8.111314337190157" fill="#ff3d05" stroke="none" /><path d="M 113.20401910651253 116.32954008644616 l 6.273281251312486 7.758228524247794 a30.977182342351014,30.977182342351014 0 0,0 -0.4175171123205157,0.33170084516542836 l -6.13880664627462 -7.865063283418349" fill="#ff3304" stroke="none" /><path d="M 112.92097659922987 116.55440617244103 l 9.705502418213348 12.434727971590682 a36.7740051007157,36.7740051007157 0 0,0 -0.5023526476966219,0.38518258883795353 l -9.490021042023232 -12.599949902256007" fill="#ff8b0c" stroke="none" /><path d="M 112.34349029814194 116.9893568818739 l 7.0482366279110575 9.701065465859488 a32.99117636997799,32.99117636997799 0 0,0 -0.46230483941915046,0.3298422279707752 l -6.880204460643023 -9.82095195567448" fill="#ff5207" stroke="none" /><path d="M 112.04921762599082 117.19931262002967 l 9.169163634225095 13.088261553934435 a36.98049286647299,36.98049286647299 0 0,0 -0.5244945335015028,0.36075212273882973 l -8.94251221610071 -13.24415446603836" fill="#ff8e0d" stroke="none" /><path d="M 111.1453310114006 117.79835938074945 l 11.82139621909271 18.877990978861412 a43.27384008128711,43.27384008128711 0 0,0 -0.6347258497066373,0.389900458476377 l -11.494691169453764 -19.078679904166165" fill="#ffe715" stroke="none" /><line stroke="#e1ed5e" stroke-width="0.3" x1="143.8653032363475" x2="146.44561519142675" y1="172.8068346515853" y2="177.08958963109032" /><path d="M 144.38136562736335 173.6633856474863 a86.0,86.0 0 0,1 -40.68145358897372,12.25698825130547" fill="none" id="id30" stroke="none" /><text fill="#e1ed5e" style="font-size:6.75px; font-family:Arial;" text-anchor="middle"><textPath startOffset="21.466115282336833" xlink:href="#id30">June</textPath></text><path d="M 110.8373102113329 117.98757091392108 l 4.431263846967062 7.354931355777005 a29.58668239366224,29.58668239366224 0 0,0 -0.43849172145650395,0.2590686380779999 l -4.304004254482176 -7.430118566148755" fill="#ff1d03" stroke="none" /><path d="M 110.21172684928248 118.3499491758327 l 5.12707799183565 9.213096076627336 a31.543626892655652,31.543626892655652 0 0,0 -0.47672512412645357,0.25994854815123636 l -4.967730055840547 -9.299985276538342" fill="#ff3c05" stroke="none" /><path d="M 109.89434966115114 118.52300852407294 l 5.934797151120739 11.110411697949184 a33.59615279848879,33.59615279848879 0 0,0 -0.5124358753078997,0.268082230745945 l -5.7426703732863436 -11.210923347639847" fill="#ff5c08" stroke="none" /><path d="M 109.57404056367764 118.69057910512821 l 12.435756841733339 24.277262607844374 a48.27697798431777,48.27697798431777 0 0,0 -0.7428817516436994,0.37249633224633794 l -12.01602118240688 -24.487726781000013" fill="#d5ff1c" stroke="none" /><path d="M 108.92500713936063 119.00905698771935 l 6.794174278546764 14.47067145479556 a36.98627963223156,36.98627963223156 0 0,0 -0.5786274560325574,0.2656194851799998 l -6.544078826746787 -14.585478010309634" fill="#ff8e0d" stroke="none" /><path d="M 108.59647513512805 119.15986991738527 l 6.386305445075855 14.233831850491365 a36.60086107834654,36.60086107834654 0 0,0 -0.5770375425125833,0.25295630106730654 l -6.140347227905519 -14.341652704853125" fill="#ff890c" stroke="none" /><path d="M 107.93186726928326 119.44442032107085 l 6.035024865164223 14.794443242993246 a36.97801852525209,36.97801852525209 0 0,0 -0.5914350986840765,0.23534423159575163 l -5.7794686904382795 -14.896134318995067" fill="#ff8e0d" stroke="none" /><path d="M 107.59598834532513 119.57807347666477 l 4.345442604905767 11.200042804151146 a33.013485349695486,33.013485349695486 0 0,0 -0.531563929201259,0.20099199390655584 l -4.152008454944233 -11.273183048164332" fill="#ff5307" stroke="none" /><path d="M 106.91757812671514 119.82793768551818 l 3.949180139135021 11.319582702687667 a32.98870202875709,32.98870202875709 0 0,0 -0.537763389312317,0.1824385390346513 l -3.753747016885477 -11.385884228620442" fill="#ff5207" stroke="none" /><path d="M 106.57524785965236 119.94407469862006 l 6.359357496256415 19.28923496844011 a41.310490231229906,41.310490231229906 0 0,0 -0.6772533338305562,0.21683513053716535 l -6.026382817334919 -19.395842945636982" fill="#ffcc13" stroke="none" /><path d="M 105.53697534728816 120.25689768951611 l 5.5620698867111225 20.3487054881377 a42.09517566809113,42.09517566809113 0 0,0 -0.7006031527393695,0.18503566032143312 l -5.2109762911602555 -20.44143249776272" fill="#ffd714" stroke="none" /><path d="M 104.83641907484287 120.43548508189849 l 5.491700026586634 23.20426584853359 a44.84526625457208,44.84526625457208 0 0,0 -0.752716797611852,0.1713158925009626 l -5.09146307958192 -23.29535847461224" fill="#fffc17" stroke="none" /><path d="M 103.7750983002368 120.6578951692458 l 3.2324901861414714 17.68866347049493 a38.98159637451366,38.98159637451366 0 0,0 -0.6611112210687833,0.11494265995382275 l -2.927529993600638 -17.74168470896976" fill="#ffab0f" stroke="none" /><path d="M 103.06178313531738 120.77559828337769 l 3.7885474326420785 25.707026284843295 a46.984693418607094,46.984693418607094 0 0,0 -0.8011369221454998,0.11103027743310634 l -3.3454819193097483 -25.768431127769002" fill="#e5ff1a" stroke="none" /><path d="M 102.70371172650421 120.8252237178851 l 2.0947059704142075 16.134382977828746 a37.269791245671804,37.269791245671804 0 0,0 -0.6369098107938737,0.07712090824272443 l -1.8166687365689536 -16.168049414796823" fill="#ff920d" stroke="none" /><path d="M 101.98527174616119 120.90594882070398 l 2.7296829406477325 28.744987664422645 a49.87430492296348,49.87430492296348 0 0,0 -0.8553578246045856,0.07380387226490613 l -2.234480798301605 -28.787715788966214" fill="#c0ff1e" stroke="none" /><path d="M 101.62511606390274 120.93702456842531 l 1.1202832413655472 14.433060055869017 a35.476472537092945,35.476472537092945 0 0,0 -0.6092446244323475,0.04201707632000222 l -0.8716758561542693 -14.450205476705305" fill="#ff780b" stroke="none" /><line stroke="#e1ed5e" stroke-width="0.3" x1="102.19456741930631" x2="102.32365962044197" y1="184.97166512339345" y2="189.96999836594603" /><path d="M 102.22038585953345 185.97133177190398 a86.0,86.0 0 0,1 -42.740103519485714,-10.115201625700543" fill="none" id="id31" stroke="none" /><text fill="#e1ed5e" style="font-size:6.75px; font-family:Arial;" text-anchor="middle"><textPath startOffset="22.20632615414155" xlink:href="#id31">July</textPath></text><path d="M 100.54218724476979 120.99299961872073 l 0.4136903013629846 16.01771421691959 a37.02305552634546,37.02305552634546 0 0,0 -0.6372202224077751,0.010970324009886578 l -0.1379103890625416 -16.022462018208635" fill="#ff8f0d" stroke="none" /><path d="M 100.18074693466247 120.99922214144158 l 0.1339584870315833 15.563329094132873 a36.56390559495047,36.56390559495047 0 0,0 -0.6294108433880667,0.0 l 0.1339584870315726 -15.563329094132873" fill="#ff880c" stroke="none" /><path d="M 98.73552117531835 120.96189622390904 l -1.213198850452999 20.1118025116507 a41.14836101816671,41.14836101816671 0 0,0 -0.7066491102887399,-0.04873465995063638 l 1.559210721520669 -20.08793950718378" fill="#ffca12" stroke="none" /><path d="M 98.37488393609728 120.93702456842531 l -1.2511602010551974 16.11920062227428 a37.16768476158018,37.16768476158018 0 0,0 -0.6374358506321055,-0.05500064738271581 l 1.5284403694288444 -16.095275722612904" fill="#ff910d" stroke="none" /><path d="M 97.65516085044442 120.86867818915974 l -3.0106970179923422 26.794702402274837 a47.963315325838934,47.963315325838934 0 0,0 -0.8196532652372671,-0.0992485956220817 l 3.4714777062809987 -26.738908277927404" fill="#d9ff1c" stroke="none" /><path d="M 95.51606077576429 120.51570834832081 l -3.4165536997951587 15.632018133189849 a37.00102590773355,37.00102590773355 0 0,0 -0.62105314686994,-0.14134967425214398 l 3.6851269960579613 -15.570891725360019" fill="#ff8e0d" stroke="none" /><path d="M 95.16358092515715 120.4354850818985 l -3.7150581605640736 15.697360887002795 a37.130988684925015,37.130988684925015 0 0,0 -0.6207005529561878,-0.15255309434720582 l 3.9847119982634718 -15.63108653434156" fill="#ff900d" stroke="none" /><path d="M 94.46302465271185 120.25689768951611 l -3.209379211966447 11.741440455483547 a33.172162457668236,33.172162457668236 0 0,0 -0.5495029240758585,-0.15529501518018882 l 3.4110133041469193 -11.684456646964836" fill="#ff5507" stroke="none" /><path d="M 94.11515582081647 120.15858648285463 l -8.397020062795516 28.76406748931348 a50.964671272429655,50.964671272429655 0 0,0 -0.8400070546101992,-0.2530872348711123 l 8.89090209184596 -28.61526488533664" fill="#b3ff20" stroke="none" /><line stroke="#e1ed5e" stroke-width="0.3" x1="58.666819895761336" x2="56.23545636021788" y1="174.27360380694188" y2="178.64263932499728" /><path d="M 58.180547188652646 175.14741091055294 a86.0,86.0 0 0,1 -31.652253787137756,-30.449443065178592" fill="none" id="id32" stroke="none" /><text fill="#e1ed5e" style="font-size:6.75px; font-family:Arial;" text-anchor="middle"><textPath startOffset="22.20632615414155" xlink:href="#id32">August</textPath></text><line stroke="#e1ed5e" stroke-width="0.3" x1="26.63291911575756" x2="22.317208475507996" y1="142.92168965132927" y2="145.44649492493687" /><path d="M 25.769776987707644 143.4266507060508 a86.0,86.0 0 0,1 -11.730757126820373,-40.83630448921669" fill="none" id="id33" stroke="none" /><text fill="#e1ed5e" style="font-size:6.75px; font-family:Arial;" text-anchor="middle"><textPath startOffset="21.46611528233685" xlink:href="#id33">September</textPath></text><line stroke="#e1ed5e" stroke-width="0.3" x1="15.007084014347285" x2="10.007500721073583" y1="101.09737516637583" y2="101.16192664675087" /><path d="M 14.007167355692545 101.11028546245083 a86.0,86.0 0 0,1 10.666146001902534,-42.60595125391555" fill="none" id="id34" stroke="none" /><text fill="#e1ed5e" style="font-size:6.75px; font-family:Arial;" text-anchor="middle"><textPath startOffset="22.20632615414155" xlink:href="#id34">October</textPath></text><line stroke="#e1ed5e" stroke-width="0.3" x1="26.266209847984243" x2="21.928928074336255" y1="57.711370442889674" y2="55.22380399835377" /><path d="M 25.398753493254645 57.213857153982495 a86.0,86.0 0 0,1 29.58750427330803,-30.492523968695096" fill="none" id="id35" stroke="none" /><text fill="#e1ed5e" style="font-size:6.75px; font-family:Arial;" text-anchor="middle"><textPath startOffset="21.46611528233685" xlink:href="#id35">November</textPath></text><line stroke="#e1ed5e" stroke-width="0.3" x1="56.762969772571076" x2="54.21961505331055" y1="26.818313649435495" y2="22.513508569990535" /><path d="M 56.25429882871897 25.957352633546506 a86.0,86.0 0 0,1 42.265352541879196,-11.944610805530505" fill="none" id="id36" stroke="none" /><text fill="#e1ed5e" style="font-size:6.75px; font-family:Arial;" text-anchor="middle"><textPath startOffset="22.20632615414155" xlink:href="#id36">December</textPath></text></svg>