<?xml version="1.0" encoding="utf-8" ?>
<svg baseProfile="full" height="200mm" version="1.1" viewBox="0,0,200,200" width="200mm" xmlns="http://www.w3.org/2000/svg" xmlns:ev="http://www.w3.org/2001/xml-events" xmlns:xlink="http://www.w3.org/1999/xlink"><defs /><rect fill="#1a1a1a" height="200" width="200" x="0" y="0" /><text alignment-baseline="middle" fill="#e1ed5e" style="dominant-baseline: central; font-size:9.0px; font-family:Arial;" text-anchor="middle" x="100.0" y="100.0">2024</text><line stroke="#e1ed5e" stroke-width="0.3" x1="100.0" x2="100.0" y1="15.0" y2="10.0" /><path d="M 100.0 14.0 a86.0,86.0 0 0,1 42.35913384403234,11.155469271406648" fill="none" id="id1" stroke="none" /><text fill="#e1ed5e" style="font-size:6.75px; font-family:Arial;" text-anchor="middle"><textPath startOffset="22.145653131862478" xlink:href="#id1">January</textPath></text><line stroke="#e1ed5e" stroke-width="0.3" x1="143.13028292997686" x2="145.6673583964461" y1="26.7553504044142" y2="22.446841604673864" /><path d="M 143.63769802327073 25.89364864446614 a86.0,86.0 0 0,1 29.32050498858742,28.57503671076993" fill="none" id="id2" stroke="none" /><text fill="#e1ed5e" style="font-size:6.75px; font-family:Arial;" text-anchor="middle"><textPath startOffset="20.669276256404974" xlink:href="#id2">February</textPath></text><line stroke="#e1ed5e" stroke-width="0.3" x1="172.87174338648825" x2="177.1583165268699" y1="56.24261187166439" y2="53.66864786411523" /><path d="M 173.72905801456457 55.72781907015455 a86.0,86.0 0 0,1 12.242430191666344,42.057860355516425" fill="none" id="id3" stroke="none" /><text fill="#e1ed5e" style="font-size:6.75px; font-family:Arial;" text-anchor="middle"><textPath startOffset="22.145653131862474" xlink:href="#id3">March</textPath></text><line stroke="#e1ed5e" stroke-width="0.3" x1="184.99686870605535" x2="189.99668451229388" y1="99.2704041080226" y2="99.22748670261217" /><path d="M 185.99683186730306 99.26182062694052 a86.0,86.0 0 0,1 -10.086455211305974,41.156179273409016" fill="none" id="id4" stroke="none" /><text fill="#e1ed5e" style="font-size:6.75px; font-family:Arial;" text-anchor="middle"><textPath startOffset="21.40746469413373" xlink:href="#id4">April</textPath></text><line stroke="#e1ed5e" stroke-width="0.3" x1="174.33088141563837" x2="178.70328620479359" y1="141.23008692659167" y2="143.65538615756765" /><path d="M 175.20536237346943 141.71514677278685 a86.0,86.0 0 0,1 -30.301960400862466,31.631185727798858" fill="none" id="id5" stroke="none" /><text fill="#e1ed5e" style="font-size:6.75px; font-family:Arial;" text-anchor="middle"><textPath startOffset="22.145653131862474" xlink:href="#id5">May</textPath></text><line stroke="#e1ed5e" stroke-width="0.3" x1="143.1302829299769" x2="145.66735839644613" y1="173.24464959558577" y2="177.55315839532614" /><path d="M 143.63769802327073 174.10635135553383 a86.0,86.0 0 0,1 -40.68552437913181,11.842963189579606" fill="none" id="id6" stroke="none" /><text fill="#e1ed5e" style="font-size:6.75px; font-family:Arial;" text-anchor="middle"><textPath startOffset="21.407464694133747" xlink:href="#id6">June</textPath></text><line stroke="#e1ed5e" stroke-width="0.3" x1="101.45913802915013" x2="101.54496967792366" y1="184.9874750549273" y2="189.98673829345242" /><path d="M 101.47630435890484 185.9873277026323 a86.0,86.0 0 0,1 -42.54439059252881,-10.42667462771756" fill="none" id="id7" stroke="none" /><text fill="#e1ed5e" style="font-size:6.75px; font-family:Arial;" text-anchor="middle"><textPath startOffset="22.145653131862474" xlink:href="#id7">July</textPath></text><line stroke="#e1ed5e" stroke-width="0.3" x1="58.13341422392154" x2="55.67067388415222" y1="173.97424548756322" y2="178.32567169271397" /><path d="M 57.64086615596768 174.84453072859336 a86.0,86.0 0 0,1 -31.369924170532247,-30.572349798747897" fill="none" id="id8" stroke="none" /><text fill="#e1ed5e" style="font-size:6.75px; font-family:Arial;" text-anchor="middle"><textPath startOffset="22.145653131862474" xlink:href="#id8">August</textPath></text><line stroke="#e1ed5e" stroke-width="0.3" x1="26.387840678322732" x2="22.057713659400548" y1="142.50000000000003" y2="145.00000000000006" /><path d="M 25.521815274538298 143.00000000000003 a86.0,86.0 0 0,1 -11.493303480769221,-40.785679425670985" fill="none" id="id9" stroke="none" /><text fill="#e1ed5e" style="font-size:6.75px; font-family:Arial;" text-anchor="middle"><textPath startOffset="21.40746469413373" xlink:href="#id9">September</textPath></text><line stroke="#e1ed5e" stroke-width="0.3" x1="15.003131293944662" x2="10.003315487706104" y1="100.72959589197737" y2="100.7725132973878" /><path d="M 14.003168132696942 100.73817937305945 a86.0,86.0 0 0,1 10.791469493833604,-42.45332614584628" fill="none" id="id10" stroke="none" /><text fill="#e1ed5e" style="font-size:6.75px; font-family:Arial;" text-anchor="middle"><textPath startOffset="22.145653131862435" xlink:href="#id10">October</textPath></text><path d="M 80.9802524753101 91.09779779509293 l -9.4688753589716 -4.4319117795440635 a31.454733023152766,31.454733023152766 0 0,0 0.23309566160648165,-0.48708028238141543 l 9.391400439405214 4.593804563990566" fill="#ff1a02" stroke="none" /><line stroke="#e1ed5e" stroke-width="0.3" x1="26.387840678322718" x2="22.05771365940052" y1="57.49999999999999" y2="54.99999999999999" /><path d="M 25.521815274538284 56.99999999999999 a86.0,86.0 0 0,1 29.574782752854787,-30.34633250058573" fill="none" id="id11" stroke="none" /><text fill="#e1ed5e" style="font-size:6.75px; font-family:Arial;" text-anchor="middle"><textPath startOffset="21.40746469413373" xlink:href="#id11">November</textPath></text><path d="M 82.576782715395 88.27688183743585 l -13.090703110261574 -8.808009272101646 a36.77807134153096,36.77807134153096 0 0,0 0.35694039997821936,-0.5207867108613103 l 12.937572973468042 9.031430718032992" fill="#ff6f0a" stroke="none" /><path d="M 83.42222388311158 87.10902102172516 l -7.885584880931965 -6.131878498946445 a30.98911321590783,30.98911321590783 0 0,0 0.33015737671656253,-0.4171430600908127 l 7.779161073573841 6.266341502951941" fill="#ff1202" stroke="none" /><path d="M 83.8745106332314 86.54754324733833 l -10.89963633124174 -9.092864286521316 a35.19444444444444,35.19444444444444 0 0,0 0.3910026296778914,-0.46060011459842815 l 10.741939138056734 9.278631183569301" fill="#ff5608" stroke="none" /><path d="M 84.58840730492382 85.73525988315684 l -8.180433679893278 -7.571687287325612 a32.14674587349064,32.14674587349064 0 0,0 0.3783276527140854,-0.40177085664243634 l 8.049250193442921 7.710999603912559" fill="#ff2503" stroke="none" /><path d="M 85.34317274990677 84.96080404539775 l -26.265601632601246 -26.950821148260324 a58.632812673091834,58.632812673091834 0 0,0 0.7268444938053098,-0.6963005831778589 l 25.799084652930635 27.397733861743752" fill="#63ff29" stroke="none" /><path d="M 86.40962598614128 83.9905735841838 l -20.089712815754297 -23.665631182094227 a52.04285199955689,52.04285199955689 0 0,0 0.6860379598519314,-0.5723172658940391 l 19.680500521740456 24.007010631900148" fill="#b5ff20" stroke="none" /><path d="M 86.96720088162412 83.53348406188908 l -8.557078623535826 -10.811589303133545 a34.78818544366899,34.78818544366899 0 0,0 0.4714462676882445,-0.36659946927163684 l 8.370222411212337 10.956889824025987" fill="#ff5007" stroke="none" /><path d="M 87.54013794807813 83.09580414077388 l -8.396753533753339 -11.391808811745378 a35.15198847900742,35.15198847900742 0 0,0 0.4888118170945557,-0.3538620594840271 l 8.199960706284816 11.534271642602484" fill="#ff5507" stroke="none" /><path d="M 87.83215693770416 82.88440491214696 l -16.871992027148163 -23.732569723632384 a50.118704996122744,50.118704996122744 0 0,0 0.7054921533746576,-0.492488314337306 l 16.462104782599738 24.018702853774816" fill="#ceff1d" stroke="none" /><line stroke="#e1ed5e" stroke-width="0.3" x1="56.869717070023135" x2="54.33264160355391" y1="26.7553504044142" y2="22.446841604673864" /><path d="M 56.362301976729285 25.89364864446614 a86.0,86.0 0 0,1 42.16139366436587,-11.88097634709845" fill="none" id="id12" stroke="none" /><text fill="#e1ed5e" style="font-size:6.75px; font-family:Arial;" text-anchor="middle"><textPath startOffset="22.145653131862474" xlink:href="#id12">December</textPath></text><path d="M 89.97174638481275 81.54914285379989 l -9.473461341405876 -17.430101849998454 a40.83821867730143,40.83821867730143 0 0,0 0.6188179964986398,-0.3294857280732554 l 9.172854529120675 17.590158045794286" fill="#ffad10" stroke="none" /><path d="M 91.5904679813234 80.7573450057729 l -25.22859605602979 -57.7279649826813 a84.0,84.0 0 0,0 1.3262596993182754,-0.5661014013623844 l 24.233901281541083 58.15254103370309" fill="#4dd2ff" stroke="none" /><path d="M 94.30408787586887 79.78721728523814 l -6.761752923548969 -23.995075702725963 a45.92960008862302,45.92960008862302 0 0,0 0.7607223408788268,-0.20733825678851137 l 6.348849181735464 24.107614453658613" fill="#fff617" stroke="none" /><path d="M 97.12497278360702 79.19773525538626 l -3.1675169918150106 -22.91857505594887 a44.13642683061926,44.13642683061926 0 0,0 0.7514167359257427,-0.09728594035273513 l 2.7736224339984736 22.969572592502" fill="#ffdd14" stroke="none" /><path d="M 98.1996594967304 79.07731436759882 l -0.7645181414128102 -8.884859671822076 a29.917691370333444,29.917691370333444 0 0,0 0.5120640896782743,-0.03963699906073761 l 0.6118850569593186 8.896674437877866" fill="#ff0000" stroke="none" /><path d="M 99.27912038922189 79.0123766808444 l -0.6656663444036925 -19.3801493116223 a40.39157804364684,40.39157804364684 0 0,0 0.6931708071715614,-0.017853621146611535 l 0.3328822231613872 19.388720650118955" fill="#ffa60f" stroke="none" /></svg>